<svg width="16" height="9" viewBox="0 0 16 9" fill="none" xmlns="http://www.w3.org/2000/svg">
<path d="M12.5 5H3.5C3.22 5 3 4.78 3 4.5C3 4.22 3.22 4 3.5 4H12.5C12.78 4 13 4.22 13 4.5C13 4.78 12.78 5 12.5 5Z" fill="white"/>
<path d="M10 8.5C9.93442 8.5008 9.86941 8.48787 9.80913 8.46203C9.74885 8.4362 9.69465 8.39804 9.65 8.35C9.45 8.15 9.45 7.84 9.65 7.64L12.8 4.49L9.65 1.34C9.45 1.14 9.45 0.83 9.65 0.63C9.85 0.43 10.16 0.43 10.36 0.63L13.86 4.13C14.06 4.33 14.06 4.64 13.86 4.84L10.36 8.34C10.26 8.44 10.13 8.49 10.01 8.49L10 8.5Z" fill="white"/>
</svg>
