<svg width="24" height="24" viewBox="0 0 24 24" fill="" xmlns="http://www.w3.org/2000/svg">
<g clip-path="url(#clip0_62_443)">
<path fill-rule="evenodd" clip-rule="evenodd" d="M12.7071 15.7071C12.5196 15.8946 12.2653 15.9999 12.0001 15.9999C11.7349 15.9999 11.4806 15.8946 11.2931 15.7071L5.6361 10.0501C5.54059 9.95785 5.46441 9.84751 5.412 9.7255C5.35959 9.6035 5.332 9.47228 5.33085 9.3395C5.32969 9.20672 5.355 9.07504 5.40528 8.95215C5.45556 8.82925 5.52981 8.7176 5.6237 8.6237C5.7176 8.52981 5.82925 8.45556 5.95214 8.40528C6.07504 8.355 6.20672 8.32969 6.3395 8.33085C6.47228 8.332 6.6035 8.35959 6.7255 8.412C6.84751 8.46441 6.95785 8.54059 7.0501 8.6361L12.0001 13.5861L16.9501 8.6361C17.1387 8.45394 17.3913 8.35315 17.6535 8.35542C17.9157 8.3577 18.1665 8.46287 18.3519 8.64828C18.5373 8.83369 18.6425 9.0845 18.6448 9.3467C18.6471 9.60889 18.5463 9.8615 18.3641 10.0501L12.7071 15.7071Z" fill=""/>
</g>
<defs>
<clipPath id="clip0_62_443">
<rect width="24" height="24" fill=""/>
</clipPath>
</defs>
</svg>
