<svg width="33" height="33" viewBox="0 0 56 56" fill="none" xmlns="http://www.w3.org/2000/svg">
<g opacity="0.7">
<path d="M11.0833 40.25C11.5474 40.25 11.9925 40.4344 12.3207 40.7626C12.6489 41.0908 12.8333 41.5359 12.8333 42V47.25C12.8333 47.572 13.0946 47.8333 13.4166 47.8333H42.5833C42.738 47.8333 42.8863 47.7719 42.9957 47.6625C43.1051 47.5531 43.1666 47.4047 43.1666 47.25V42C43.1666 41.5359 43.351 41.0908 43.6791 40.7626C44.0073 40.4344 44.4525 40.25 44.9166 40.25C45.3807 40.25 45.8258 40.4344 46.154 40.7626C46.4822 41.0908 46.6666 41.5359 46.6666 42V47.25C46.6666 48.333 46.2364 49.3716 45.4706 50.1374C44.7048 50.9031 43.6662 51.3333 42.5833 51.3333H13.4166C12.3336 51.3333 11.295 50.9031 10.5292 50.1374C9.76346 49.3716 9.33325 48.333 9.33325 47.25V42C9.33325 41.5359 9.51763 41.0908 9.84581 40.7626C10.174 40.4344 10.6191 40.25 11.0833 40.25Z" fill="#F24E1E"/>
<path d="M12.18 23.2633C12.3423 23.1007 12.5351 22.9718 12.7473 22.8838C12.9595 22.7958 13.1869 22.7505 13.4167 22.7505C13.6464 22.7505 13.8738 22.7958 14.086 22.8838C14.2982 22.9718 14.491 23.1007 14.6533 23.2633L26.25 34.8576V6.41663C26.25 5.9525 26.4344 5.50738 26.7626 5.17919C27.0908 4.851 27.5359 4.66663 28 4.66663C28.4641 4.66663 28.9092 4.851 29.2374 5.17919C29.5656 5.50738 29.75 5.9525 29.75 6.41663V34.8576L41.3467 23.2633C41.6746 22.9353 42.1195 22.751 42.5833 22.751C43.0472 22.751 43.492 22.9353 43.82 23.2633C44.148 23.5913 44.3322 24.0361 44.3322 24.5C44.3322 24.9638 44.148 25.4086 43.82 25.7366L29.2367 40.32C29.0743 40.4825 28.8816 40.6115 28.6694 40.6994C28.4572 40.7874 28.2297 40.8327 28 40.8327C27.7703 40.8327 27.5428 40.7874 27.3306 40.6994C27.1184 40.6115 26.9256 40.4825 26.7633 40.32L12.18 25.7366C12.0174 25.5743 11.8885 25.3815 11.8005 25.1693C11.7125 24.9571 11.6672 24.7297 11.6672 24.5C11.6672 24.2702 11.7125 24.0428 11.8005 23.8306C11.8885 23.6184 12.0174 23.4256 12.18 23.2633Z" fill="#F24E1E"/>
</g>
</svg>
