<svg width="380" height="392" viewBox="0 0 380 392" fill="none" xmlns="http://www.w3.org/2000/svg">
<g clip-path="url(#clip0_62_405)">
<path d="M223.02 228.445L127.978 230.117C126.478 230.146 124.987 229.88 123.59 229.332C122.193 228.785 120.918 227.967 119.837 226.926C118.756 225.885 117.892 224.641 117.292 223.265C116.693 221.889 116.371 220.408 116.345 218.908C116.318 217.408 116.588 215.917 117.139 214.521C117.689 213.125 118.51 211.851 119.553 210.772C120.596 209.694 121.842 208.832 123.219 208.236C124.596 207.639 126.077 207.32 127.577 207.297L222.619 205.626C224.036 205.601 225.404 206.14 226.424 207.125C227.443 208.109 228.03 209.458 228.055 210.875L228.268 223.008C228.292 224.363 227.8 225.677 226.892 226.683C225.984 227.689 224.727 228.313 223.377 228.427C223.259 228.437 223.14 228.443 223.02 228.445Z" fill="#FD4552"/>
<path d="M204.665 231.546L126.692 235.106C125.991 235.138 125.29 235.032 124.63 234.793C123.97 234.554 123.364 234.188 122.846 233.715C122.327 233.242 121.907 232.671 121.61 232.036C121.312 231.4 121.142 230.713 121.11 230.012L120.285 211.932C120.22 210.516 120.721 209.133 121.676 208.086C122.631 207.039 123.963 206.414 125.379 206.35L203.352 202.79C204.053 202.758 204.754 202.864 205.414 203.103C206.074 203.341 206.68 203.708 207.198 204.181C207.717 204.654 208.137 205.224 208.434 205.86C208.732 206.495 208.902 207.183 208.934 207.884L209.759 225.964C209.821 227.344 209.346 228.695 208.434 229.733C207.522 230.771 206.243 231.416 204.867 231.533C204.8 231.539 204.732 231.543 204.665 231.546Z" fill="#2F2E41"/>
<path d="M72.8059 386.656V285.52C72.8075 284.103 73.371 282.745 74.3727 281.743C75.3744 280.741 76.7325 280.178 78.1492 280.176H90.2823C91.6989 280.178 93.0571 280.741 94.0588 281.743C95.0605 282.745 95.624 284.103 95.6256 285.52V386.656C95.6239 388.073 95.0605 389.431 94.0588 390.433C93.0571 391.435 91.6989 391.998 90.2823 392H78.1492C76.7325 391.998 75.3744 391.435 74.3727 390.433C73.371 389.431 72.8075 388.073 72.8059 386.656Z" fill="#FD4552"/>
<path d="M104.646 386.656V285.52C104.647 284.103 105.211 282.745 106.212 281.743C107.214 280.741 108.572 280.178 109.989 280.176H122.122C123.539 280.178 124.897 280.741 125.898 281.743C126.9 282.745 127.464 284.103 127.465 285.52V386.656C127.464 388.073 126.9 389.431 125.898 390.433C124.897 391.435 123.539 391.998 122.122 392H109.989C108.572 391.998 107.214 391.435 106.212 390.433C105.211 389.431 104.647 388.073 104.646 386.656Z" fill="#FD4552"/>
<path d="M107.814 174.63C130.968 174.63 149.738 155.857 149.738 132.7C149.738 109.543 130.968 90.7705 107.814 90.7705C84.6602 90.7705 65.8901 109.543 65.8901 132.7C65.8901 155.857 84.6602 174.63 107.814 174.63Z" fill="#FD4552"/>
<path d="M130.507 147.016C131.856 146.573 133.094 145.846 134.138 144.885C134.83 144.198 135.364 143.369 135.701 142.454C136.039 141.54 136.172 140.563 136.093 139.591C136.049 138.899 135.845 138.226 135.499 137.626C135.152 137.025 134.671 136.513 134.093 136.129C132.594 135.167 130.589 135.164 128.547 136.064L128.624 119.695L126.98 119.688L126.889 138.931L128.156 138.134C129.625 137.211 131.723 136.562 133.205 137.513C133.571 137.764 133.875 138.097 134.092 138.484C134.309 138.872 134.433 139.305 134.456 139.748C134.511 140.472 134.41 141.199 134.159 141.88C133.909 142.561 133.514 143.18 133.003 143.695C131.187 145.43 128.539 145.972 125.518 146.457L125.779 148.08C127.384 147.868 128.966 147.512 130.507 147.016Z" fill="#2F2E41"/>
<path d="M145.572 118.868L136.793 120.028L137.009 121.658L145.787 120.498L145.572 118.868Z" fill="#2F2E41"/>
<path d="M117.863 122.527L109.085 123.687L109.3 125.317L118.078 124.157L117.863 122.527Z" fill="#2F2E41"/>
<path d="M18.8697 129.389L79.0627 202.969C80.0123 204.128 80.7241 205.464 81.1575 206.899C81.5909 208.333 81.7374 209.84 81.5886 211.331C81.4398 212.823 80.9986 214.27 80.2903 215.591C79.582 216.912 78.6204 218.081 77.4604 219.03C76.3005 219.979 74.9649 220.69 73.53 221.123C72.0951 221.556 70.589 221.702 69.0978 221.552C67.6065 221.403 66.1593 220.961 64.8388 220.252C63.5184 219.543 62.3505 218.581 61.4019 217.42L1.20853 143.841C0.764144 143.298 0.431064 142.673 0.228337 142.001C0.0256094 141.329 -0.0428127 140.624 0.026988 139.926C0.0967886 139.227 0.303433 138.55 0.635133 137.931C0.966834 137.313 1.41709 136.766 1.96018 136.322L11.3505 128.637C12.4474 127.74 13.8557 127.315 15.2658 127.456C16.6759 127.597 17.9723 128.293 18.8697 129.389Z" fill="#FD4552"/>
<path d="M38.9448 145.811L88.3722 206.231C88.8166 206.774 89.1496 207.399 89.3524 208.071C89.5551 208.743 89.6235 209.448 89.5537 210.146C89.4839 210.845 89.2772 211.522 88.9455 212.141C88.6138 212.759 88.1636 213.306 87.6205 213.75L71.5813 226.875C71.0383 227.32 70.413 227.653 69.7412 227.855C69.0695 228.058 68.3643 228.127 67.6661 228.057C66.9679 227.987 66.2902 227.78 65.6719 227.448C65.0536 227.117 64.5067 226.666 64.0624 226.123L14.6348 165.704C13.739 164.607 13.3151 163.199 13.456 161.789C13.5969 160.379 14.2912 159.083 15.3865 158.185L31.4258 145.059C32.5227 144.162 33.931 143.737 35.3411 143.878C36.7511 144.019 38.0474 144.715 38.9448 145.811Z" fill="#2F2E41"/>
<path d="M344.54 125.465C344.079 124.445 343.306 123.572 342.318 122.956C341.33 122.34 340.17 122.008 338.981 122H228.015C226.42 122.001 224.891 122.592 223.763 123.642C222.635 124.693 222.001 126.118 222 127.604V258.396C222.001 259.882 222.635 261.307 223.763 262.358C224.891 263.408 226.42 263.999 228.015 264H338.985C340.579 263.998 342.108 263.407 343.236 262.356C344.363 261.306 344.998 259.881 345 258.396V127.604C345.003 126.87 344.848 126.143 344.544 125.465H344.54ZM343.66 258.396C343.659 259.552 343.165 260.66 342.288 261.477C341.411 262.294 340.221 262.754 338.981 262.755H228.015C226.774 262.755 225.584 262.296 224.707 261.479C223.829 260.661 223.336 259.553 223.336 258.396V127.605C223.337 126.449 223.831 125.341 224.708 124.524C225.585 123.707 226.775 123.247 228.015 123.245H338.985C339.919 123.249 340.832 123.511 341.605 124C342.379 124.488 342.979 125.18 343.328 125.988C343.396 126.149 343.455 126.313 343.504 126.48C343.61 126.847 343.664 127.225 343.664 127.605L343.66 258.396Z" fill="#3F3D56"/>
<path d="M311.142 180.297C338.835 180.297 361.284 157.845 361.284 130.149C361.284 102.452 338.835 80 311.142 80C283.449 80 261 102.452 261 130.149C261 157.845 283.449 180.297 311.142 180.297Z" fill="#FD4552"/>
<path d="M310.171 164.667C313.429 164.667 316.071 162.025 316.071 158.766C316.071 155.507 313.429 152.865 310.171 152.865C306.913 152.865 304.271 155.507 304.271 158.766C304.271 162.025 306.913 164.667 310.171 164.667Z" fill="white"/>
<path d="M309.539 97.1933C305.091 97.2375 300.836 99.0158 297.68 102.15C294.523 105.284 292.714 109.526 292.637 113.974C292.636 114.059 292.635 114.658 292.636 115.441C292.636 116.589 293.092 117.69 293.903 118.502C294.715 119.313 295.816 119.77 296.963 119.77C298.112 119.769 299.214 119.313 300.026 118.5C300.838 117.688 301.294 116.586 301.294 115.437V115.434C301.293 114.902 301.293 114.533 301.293 114.51C301.293 113.085 301.663 111.684 302.368 110.446C303.074 109.208 304.089 108.174 305.315 107.447C306.54 106.72 307.934 106.325 309.359 106.3C310.784 106.275 312.19 106.622 313.44 107.306C314.691 107.989 315.741 108.987 316.489 110.2C317.237 111.413 317.656 112.8 317.705 114.224C317.755 115.649 317.433 117.061 316.77 118.323C316.108 119.585 315.129 120.653 313.929 121.422L313.931 121.424C313.931 121.424 307.771 125.39 305.893 130.831L305.894 130.831C305.564 131.946 305.397 133.102 305.397 134.265C305.397 134.743 305.425 138.924 305.48 142.318C305.499 143.489 305.977 144.606 306.812 145.427C307.647 146.248 308.771 146.708 309.942 146.708C310.528 146.708 311.108 146.592 311.65 146.368C312.191 146.144 312.683 145.815 313.098 145.4C313.512 144.986 313.841 144.494 314.065 143.952C314.289 143.411 314.405 142.83 314.405 142.244L314.405 142.217C314.386 139.109 314.376 135.49 314.376 135.227C314.376 131.886 317.598 128.557 320.245 126.387C323.309 123.905 325.463 120.476 326.368 116.638C326.563 115.846 326.67 115.036 326.689 114.222C326.689 111.985 326.248 109.771 325.392 107.705C324.537 105.639 323.283 103.762 321.702 102.181C320.121 100.599 318.244 99.3449 316.178 98.4891C314.112 97.6333 311.898 97.1929 309.662 97.1929C309.621 97.1929 309.58 97.193 309.539 97.1933Z" fill="white"/>
<path d="M97.3041 114.149C104.81 109.213 114.244 111.434 122.587 112.078C130.125 112.661 139.06 112.087 144.362 105.927C149.878 99.5189 149.417 90.0042 144.85 83.226C140.355 76.5542 132.893 72.3415 124.999 71.2307C120.626 70.5898 116.166 70.8666 111.906 72.0434C107.645 73.2203 103.675 75.2714 100.25 78.0662L102.933 79.1776C101.37 64.229 90.3803 50.7154 75.636 47.0498C60.7179 43.341 44.0348 49.6708 36.0758 62.9739C28.2294 76.0887 29.1589 94.3891 40.4529 105.288C45.8767 110.522 53.2547 113.188 60.7421 111.765C67.6475 110.453 73.7831 105.419 75.0754 98.3089C76.2733 91.7183 73.6564 84.2323 67.2465 81.354C65.4926 80.5359 63.5758 80.1269 61.6408 80.1578C59.7057 80.1888 57.803 80.6588 56.0761 81.5325C54.512 82.4126 53.1905 83.6667 52.2296 85.1826C51.2688 86.6985 50.6986 88.429 50.5701 90.2193C50.4506 91.9524 50.8036 93.6856 51.5915 95.2339C52.4813 97.0505 55.193 95.459 54.3056 93.6473C53.7323 92.3152 53.5694 90.8423 53.8376 89.4171C54.1059 87.9919 54.793 86.6792 55.8113 85.6467C58.1413 83.2124 61.8193 82.8081 64.9154 83.8034C70.5806 85.6245 73.0819 92.1244 72.0143 97.6384C70.8186 103.815 65.5466 107.783 59.5438 108.8C53.0158 109.905 46.6497 107.148 42.1182 102.511C32.628 92.8006 31.8067 77.1608 38.2086 65.5713C44.703 53.8143 58.5564 47.5011 71.752 49.4732C84.8004 51.4233 95.5465 61.6877 98.8949 74.3442C99.3173 75.9299 99.6166 77.5458 99.7901 79.1776C99.8008 79.4836 99.8992 79.78 100.074 80.0315C100.248 80.283 100.491 80.4791 100.774 80.5962C101.057 80.7134 101.367 80.7467 101.669 80.6922C101.97 80.6378 102.249 80.4978 102.473 80.289C113.623 71.0278 132.167 72.0211 141.31 83.672C145.793 89.3857 147.115 98.2584 141.879 103.998C136.894 109.463 128.615 109.469 121.806 108.87C113.095 108.104 103.52 106.304 95.7177 111.434C94.0344 112.541 95.6072 115.264 97.3041 114.149Z" fill="#2F2E41"/>
<path d="M131.11 320.788H68.2465C66.9965 320.787 65.7981 320.29 64.9142 319.406C64.0303 318.522 63.5331 317.323 63.5317 316.073V295.116C63.5331 293.865 64.0303 292.667 64.9142 291.783C65.7981 290.899 66.9965 290.402 68.2465 290.4H131.11C132.36 290.402 133.559 290.899 134.443 291.783C135.327 292.667 135.824 293.865 135.825 295.116V316.073C135.824 317.323 135.327 318.522 134.443 319.406C133.559 320.29 132.36 320.787 131.11 320.788Z" fill="#2F2E41"/>
<path d="M133.258 217.463C131.29 207.396 123.646 199.424 113.725 196.146C117.307 194.993 119.585 193.286 119.585 191.377C119.585 187.904 112.08 185.089 102.822 185.089C93.5633 185.089 86.0579 187.904 86.0579 191.377C86.0579 193.314 88.3978 195.045 92.0716 196.198C76.8608 200.734 65.8202 213.974 65.8202 229.564C65.8202 229.564 61.138 259.584 57.4617 283.581C55.1098 298.933 67.9607 312.655 84.685 312.655H143.503C147.356 312.655 150.49 309.749 150.49 306.177C150.49 306.177 139.652 250.165 133.258 217.463Z" fill="#2F2E41"/>
</g>
<defs>
<clipPath id="clip0_62_405">
<rect width="380" height="392" fill="white"/>
</clipPath>
</defs>
</svg>
