<svg width="56" height="56" viewBox="0 0 56 56" fill="none" xmlns="http://www.w3.org/2000/svg">
<g opacity="0.7">
<path d="M49.4375 28H46.375C46.1344 28 45.9375 28.1969 45.9375 28.4375V45.9375H10.0625V10.0625H27.5625C27.8031 10.0625 28 9.86562 28 9.625V6.5625C28 6.32187 27.8031 6.125 27.5625 6.125H7.875C6.90703 6.125 6.125 6.90703 6.125 7.875V48.125C6.125 49.093 6.90703 49.875 7.875 49.875H48.125C49.093 49.875 49.875 49.093 49.875 48.125V28.4375C49.875 28.1969 49.6781 28 49.4375 28Z" fill="#F24E1E"/>
<path d="M19.4633 29.2523L19.3594 35.7547C19.354 36.2414 19.7477 36.6406 20.2344 36.6406H20.2563L26.7094 36.482C26.8188 36.4766 26.9282 36.4328 27.0047 36.3562L49.7493 13.6609C49.9188 13.4914 49.9188 13.2125 49.7493 13.043L42.9516 6.25078C42.8641 6.16328 42.7547 6.125 42.6399 6.125C42.5251 6.125 42.4157 6.16875 42.3282 6.25078L19.5891 28.9461C19.5101 29.0287 19.4652 29.1381 19.4633 29.2523ZM22.936 30.543L42.6399 10.8828L45.1118 13.3492L25.3969 33.0203L22.8977 33.0805L22.936 30.543Z" fill="#F24E1E"/>
</g>
</svg>
