<svg width="100%" height="100%" viewBox="0 0 488 456" fill="none" xmlns="http://www.w3.org/2000/svg">
<g clip-path="url(#clip0_37_41)">
<path d="M230.067 3.80457L215.134 11.9593L31.1596 112.427L16.2268 120.582C8.98101 124.549 3.60348 131.231 1.27402 139.162C-1.05545 147.093 -0.146606 155.625 3.80116 162.886L140.803 414.197C144.767 421.449 151.443 426.831 159.367 429.162C167.291 431.494 175.815 430.584 183.07 426.633L183.109 426.612L396.871 309.877L396.91 309.856C404.156 305.889 409.533 299.206 411.863 291.275C414.192 283.345 413.283 274.813 409.335 267.552L272.334 16.2412C268.37 8.98903 261.694 3.6068 253.77 1.27529C245.846 -1.05622 237.321 -0.146606 230.067 3.80457Z" fill="#F2F2F2"/>
<path d="M234.362 11.6835L216.675 21.3422L38.2087 118.802L20.5222 128.461C15.3622 131.286 11.5327 136.045 9.87387 141.692C8.21499 147.34 8.8622 153.416 11.6735 158.587L148.675 409.897C151.498 415.062 156.252 418.894 161.895 420.555C167.538 422.215 173.608 421.567 178.775 418.753L178.813 418.732L392.576 301.997L392.615 301.976C397.774 299.151 401.604 294.392 403.263 288.745C404.921 283.097 404.274 277.021 401.463 271.85L264.462 20.54C261.639 15.3756 256.884 11.5428 251.242 9.88244C245.599 8.2221 239.528 8.86982 234.362 11.6835Z" fill="white"/>
<path d="M237.311 89.6904L157.586 133.228C156.378 133.888 154.958 134.04 153.638 133.652C152.318 133.263 151.206 132.366 150.547 131.157C149.888 129.948 149.736 128.527 150.124 127.206C150.512 125.885 151.408 124.772 152.616 124.112L232.341 80.5746C233.549 79.915 234.969 79.7627 236.289 80.151C237.609 80.5394 238.721 81.4367 239.38 82.6456C240.039 83.8544 240.191 85.2758 239.803 86.5969C239.415 87.9181 238.519 89.0308 237.311 89.6904Z" fill="#F2F2F2"/>
<path d="M264.482 94.8149L165.972 148.611C164.764 149.271 163.344 149.423 162.024 149.035C160.704 148.646 159.592 147.749 158.933 146.54C158.274 145.331 158.122 143.91 158.51 142.589C158.898 141.267 159.794 140.155 161.002 139.495L259.512 85.6991C260.11 85.3725 260.767 85.167 261.444 85.0943C262.122 85.0217 262.807 85.0832 263.46 85.2755C264.114 85.4679 264.723 85.7871 265.254 86.2151C265.784 86.6432 266.225 87.1715 266.551 87.7701C266.877 88.3686 267.083 89.0257 267.155 89.7036C267.228 90.3816 267.166 91.0672 266.974 91.7214C266.782 92.3756 266.463 92.9855 266.035 93.5163C265.608 94.047 265.08 94.4883 264.482 94.8149Z" fill="#F2F2F2"/>
<path d="M124.81 115.105L51.3078 155.244C50.7292 155.56 50.2998 156.093 50.1139 156.726C49.928 157.359 50.0008 158.04 50.3164 158.62L81.6155 216.034C81.9313 216.613 82.464 217.042 83.0965 217.229C83.7289 217.415 84.4093 217.342 84.988 217.026L158.49 176.887C159.069 176.571 159.498 176.037 159.684 175.404C159.87 174.771 159.797 174.09 159.482 173.511L128.182 116.097C127.867 115.518 127.334 115.088 126.701 114.902C126.069 114.716 125.389 114.789 124.81 115.105Z" fill="#F2F2F2"/>
<path d="M276.869 162.539L168.731 221.593C168.133 221.919 167.477 222.125 166.799 222.197C166.122 222.27 165.437 222.209 164.783 222.016C164.13 221.824 163.52 221.505 162.99 221.077C162.46 220.649 162.019 220.12 161.693 219.522C161.366 218.923 161.161 218.266 161.088 217.588C161.016 216.91 161.077 216.225 161.269 215.57C161.462 214.916 161.781 214.306 162.208 213.776C162.636 213.245 163.164 212.803 163.762 212.477L271.899 153.424C273.107 152.764 274.527 152.612 275.847 153C277.167 153.388 278.279 154.286 278.938 155.495C279.597 156.703 279.749 158.125 279.361 159.446C278.973 160.767 278.076 161.88 276.869 162.539Z" fill="#F2F2F2"/>
<path d="M304.04 167.664L177.117 236.976C175.91 237.635 174.489 237.788 173.169 237.399C171.849 237.011 170.738 236.114 170.079 234.905C169.42 233.696 169.267 232.275 169.655 230.953C170.043 229.632 170.94 228.519 172.148 227.86L299.07 158.548C300.278 157.888 301.698 157.736 303.018 158.125C304.338 158.513 305.45 159.41 306.109 160.619C306.768 161.828 306.92 163.249 306.532 164.57C306.144 165.892 305.247 167.004 304.04 167.664Z" fill="#F2F2F2"/>
<path d="M127.548 269.956C139.703 269.956 149.556 260.093 149.556 247.927C149.556 235.762 139.703 225.899 127.548 225.899C115.392 225.899 105.539 235.762 105.539 247.927C105.539 260.093 115.392 269.956 127.548 269.956Z" fill="#F2F2F2"/>
<path d="M456.848 107.356H213.248C204.989 107.365 197.071 110.653 191.231 116.499C185.39 122.344 182.105 130.269 182.096 138.536V424.82C182.105 433.087 185.39 441.012 191.231 446.857C197.071 452.703 204.989 455.991 213.248 456H456.848C465.107 455.991 473.025 452.703 478.865 446.857C484.706 441.012 487.991 433.087 488 424.82V138.536C487.991 130.269 484.706 122.344 478.865 116.499C473.025 110.653 465.107 107.365 456.848 107.356Z" fill="#E6E6E6"/>
<path d="M456.848 116.332H213.248C207.367 116.339 201.728 118.68 197.569 122.843C193.41 127.005 191.071 132.649 191.064 138.536V424.82C191.071 430.707 193.41 436.351 197.569 440.514C201.728 444.676 207.367 447.018 213.248 447.024H456.848C462.73 447.017 468.368 444.676 472.527 440.513C476.686 436.351 479.025 430.707 479.032 424.821V138.536C479.025 132.649 476.686 127.005 472.527 122.843C468.368 118.68 462.73 116.339 456.848 116.332Z" fill="white"/>
<path d="M422.106 186.223H331.286C329.91 186.223 328.59 185.676 327.618 184.702C326.645 183.728 326.098 182.408 326.098 181.03C326.098 179.653 326.645 178.333 327.618 177.359C328.59 176.385 329.91 175.838 331.286 175.838H422.106C422.788 175.837 423.463 175.971 424.093 176.232C424.723 176.492 425.296 176.875 425.778 177.357C426.261 177.839 426.643 178.412 426.904 179.042C427.165 179.672 427.3 180.348 427.3 181.03C427.3 181.713 427.165 182.388 426.904 183.019C426.643 183.649 426.261 184.222 425.778 184.704C425.296 185.186 424.723 185.569 424.093 185.829C423.463 186.09 422.788 186.223 422.106 186.223Z" fill="#FD4552"/>
<path d="M443.506 203.746H331.286C329.91 203.746 328.59 203.199 327.618 202.226C326.645 201.252 326.098 199.931 326.098 198.554C326.098 197.177 326.645 195.857 327.618 194.883C328.59 193.909 329.91 193.362 331.286 193.362H443.506C444.881 193.362 446.201 193.909 447.174 194.883C448.147 195.857 448.693 197.177 448.693 198.554C448.693 199.931 448.147 201.252 447.174 202.226C446.201 203.199 444.881 203.746 443.506 203.746Z" fill="#FD4552"/>
<path d="M311.187 154.602H227.456C226.797 154.602 226.164 154.864 225.698 155.33C225.232 155.797 224.97 156.43 224.97 157.089V222.493C224.97 223.153 225.232 223.786 225.698 224.252C226.164 224.719 226.797 224.981 227.456 224.981H311.187C311.846 224.981 312.478 224.719 312.945 224.252C313.411 223.786 313.673 223.153 313.673 222.493V157.089C313.673 156.43 313.411 155.797 312.944 155.33C312.478 154.864 311.846 154.602 311.187 154.602Z" fill="#E6E6E6"/>
<path d="M250.424 194.764C250.458 200.286 248.425 205.62 244.725 209.715C241.064 213.736 235.613 216.403 230.113 215.3C225.048 214.284 220.932 209.853 221.446 204.493C221.531 203.333 221.868 202.204 222.434 201.187C222.999 200.17 223.78 199.288 224.72 198.604C225.661 197.92 226.74 197.449 227.881 197.225C229.022 197 230.199 197.028 231.328 197.305C236.14 198.555 238.057 205.495 234.047 208.753C233.085 209.534 231.703 208.167 232.674 207.378C235.325 205.225 234.506 200.514 231.307 199.332C227.582 197.957 223.636 200.915 223.368 204.726C223.051 209.245 226.509 212.647 230.75 213.449C235.339 214.315 239.888 211.965 242.997 208.721C246.56 204.954 248.526 199.951 248.482 194.764C248.491 194.512 248.597 194.274 248.778 194.098C248.959 193.923 249.201 193.825 249.453 193.825C249.705 193.825 249.947 193.923 250.128 194.098C250.309 194.274 250.415 194.512 250.424 194.764Z" fill="#2F2E41"/>
<path d="M269.387 207.12C288.52 207.12 304.031 191.596 304.031 172.446C304.031 153.296 288.52 137.772 269.387 137.772C250.253 137.772 234.742 153.296 234.742 172.446C234.742 191.596 250.253 207.12 269.387 207.12Z" fill="#FD4552"/>
<path d="M267.614 187.241L267.578 185.945C269.987 185.878 272.11 185.727 273.706 184.56C274.158 184.211 274.53 183.768 274.796 183.261C275.062 182.755 275.216 182.198 275.247 181.626C275.275 181.277 275.222 180.927 275.093 180.601C274.964 180.276 274.761 179.985 274.501 179.751C273.442 178.856 271.737 179.146 270.495 179.716L269.424 180.207L271.478 165.183L272.761 165.358L271.014 178.139C272.701 177.642 274.265 177.856 275.337 178.762C275.748 179.121 276.071 179.571 276.279 180.075C276.488 180.58 276.578 181.127 276.541 181.672C276.503 182.439 276.298 183.189 275.94 183.869C275.582 184.549 275.08 185.142 274.469 185.607C272.419 187.106 269.755 187.181 267.614 187.241Z" fill="#2F2E41"/>
<path d="M286.077 166.461H279.104V167.756H286.077V166.461Z" fill="#2F2E41"/>
<path d="M264.068 166.461H257.095V167.756H264.068V166.461Z" fill="#2F2E41"/>
<path d="M250.196 224.981C252.793 223.332 255.6 222.04 258.54 221.139C258.26 220.141 258.264 219.084 258.553 218.088C258.944 216.83 259.73 215.731 260.795 214.957C261.86 214.183 263.147 213.774 264.463 213.792H272.904C274.223 213.776 275.512 214.185 276.579 214.96C277.646 215.735 278.435 216.835 278.828 218.094C279.117 219.088 279.121 220.143 278.84 221.139C281.781 222.041 284.587 223.333 287.184 224.981H250.196Z" fill="#2F2E41"/>
<path d="M309.07 159.577C308.439 158.812 307.663 158.18 306.786 157.718C306.016 157.316 305.161 157.105 304.293 157.102C303.101 157.117 301.944 157.507 300.986 158.217C298.351 160.083 296.525 164.106 296.525 168.764C296.525 174.608 299.399 179.454 303.135 180.297C303.515 180.382 303.903 180.426 304.293 180.426C308.572 180.426 312.061 175.198 312.061 168.764C312.061 165.033 310.889 161.709 309.07 159.577Z" fill="#3F3D56"/>
<path d="M237.917 157.938H237.91C237.045 157.4 236.048 157.111 235.03 157.102C234.162 157.105 233.307 157.316 232.537 157.718C231.66 158.18 230.884 158.812 230.252 159.577L230.246 159.584C228.433 161.715 227.262 165.039 227.262 168.764C227.262 173.792 229.385 178.081 232.363 179.72C233.178 180.177 234.095 180.42 235.03 180.426C235.237 180.426 235.445 180.413 235.651 180.387H235.657C239.645 179.908 242.797 174.88 242.797 168.764C242.797 163.866 240.771 159.662 237.917 157.938Z" fill="#3F3D56"/>
<path d="M232.848 178.605C233.002 178.605 233.154 178.568 233.291 178.498C233.428 178.427 233.547 178.325 233.637 178.2C233.727 178.075 233.785 177.93 233.808 177.777C233.831 177.624 233.818 177.469 233.768 177.322C231.913 171.799 231.354 165.922 232.137 160.147C232.92 154.373 235.022 148.857 238.281 144.028C241.54 139.199 245.867 135.187 250.927 132.305C255.987 129.422 261.643 127.746 267.455 127.406C273.268 127.067 279.08 128.073 284.44 130.348C289.801 132.622 294.565 136.103 298.363 140.52C302.161 144.936 304.89 150.17 306.338 155.814C307.786 161.459 307.915 167.361 306.713 173.063C306.66 173.315 306.709 173.578 306.85 173.794C306.991 174.01 307.211 174.161 307.463 174.214C307.715 174.267 307.978 174.218 308.194 174.078C308.409 173.937 308.56 173.716 308.614 173.464C309.878 167.469 309.743 161.263 308.221 155.329C306.699 149.394 303.83 143.891 299.837 139.247C295.844 134.603 290.835 130.943 285.199 128.552C279.563 126.16 273.452 125.102 267.341 125.459C261.23 125.816 255.283 127.579 249.963 130.61C244.644 133.642 240.094 137.86 236.668 142.937C233.242 148.015 231.032 153.815 230.21 159.886C229.388 165.957 229.976 172.137 231.928 177.944C231.993 178.136 232.117 178.304 232.282 178.423C232.447 178.541 232.645 178.605 232.848 178.605Z" fill="#3F3D56"/>
<path d="M286.79 149.98C288.162 151.854 287.486 154.38 286.04 155.996C284.16 158.098 281.16 158.231 278.556 157.841C275.634 157.403 272.534 156.033 269.576 156.956C267.054 157.743 265.255 160.032 262.636 160.607C260.313 161.117 257.534 160.442 256.72 157.964C256.329 156.773 258.203 156.262 258.593 157.447C259.119 159.05 261.395 159.018 262.697 158.574C264.786 157.863 266.396 156.131 268.449 155.304C270.87 154.329 273.496 154.769 275.96 155.325C278.283 155.848 280.956 156.624 283.27 155.647C284.983 154.923 286.345 152.644 285.113 150.961C284.374 149.951 286.058 148.98 286.79 149.98Z" fill="#2F2E41"/>
<path d="M421.97 269.135H298.783C298.102 269.135 297.427 269.001 296.798 268.74C296.169 268.479 295.597 268.097 295.115 267.614C294.633 267.132 294.251 266.56 293.99 265.93C293.73 265.3 293.595 264.625 293.595 263.943C293.595 263.261 293.73 262.586 293.99 261.956C294.251 261.326 294.633 260.754 295.115 260.272C295.597 259.789 296.169 259.407 296.798 259.146C297.427 258.885 298.102 258.751 298.783 258.751H421.97C423.345 258.752 424.663 259.3 425.634 260.274C426.606 261.247 427.152 262.567 427.152 263.943C427.152 265.319 426.606 266.639 425.634 267.612C424.663 268.586 423.345 269.134 421.97 269.135Z" fill="#E6E6E6"/>
<path d="M443.369 286.659H298.783C298.101 286.66 297.426 286.526 296.796 286.265C296.166 286.005 295.593 285.623 295.111 285.14C294.629 284.658 294.246 284.085 293.985 283.455C293.724 282.825 293.59 282.149 293.59 281.467C293.59 280.784 293.724 280.109 293.985 279.478C294.246 278.848 294.629 278.276 295.111 277.793C295.593 277.311 296.166 276.929 296.796 276.668C297.426 276.408 298.101 276.274 298.783 276.275H443.369C444.051 276.274 444.726 276.408 445.356 276.668C445.986 276.929 446.559 277.311 447.041 277.793C447.523 278.276 447.906 278.848 448.167 279.478C448.428 280.109 448.563 280.784 448.563 281.467C448.563 282.149 448.428 282.825 448.167 283.455C447.906 284.085 447.523 284.658 447.041 285.14C446.559 285.623 445.986 286.005 445.356 286.265C444.726 286.526 444.051 286.66 443.369 286.659Z" fill="#E6E6E6"/>
<path d="M421.97 332.118H298.783C297.407 332.118 296.088 331.571 295.115 330.598C294.142 329.624 293.595 328.303 293.595 326.926C293.595 325.549 294.142 324.228 295.115 323.255C296.088 322.281 297.407 321.734 298.783 321.734H421.97C423.346 321.734 424.665 322.281 425.638 323.255C426.611 324.228 427.157 325.549 427.157 326.926C427.157 328.303 426.611 329.624 425.638 330.598C424.665 331.571 423.346 332.118 421.97 332.118Z" fill="#E6E6E6"/>
<path d="M443.369 349.642H298.783C297.407 349.642 296.088 349.095 295.115 348.121C294.142 347.148 293.595 345.827 293.595 344.45C293.595 343.073 294.142 341.752 295.115 340.779C296.088 339.805 297.407 339.258 298.783 339.258H443.369C444.745 339.258 446.064 339.805 447.037 340.779C448.01 341.752 448.557 343.073 448.557 344.45C448.557 345.827 448.01 347.148 447.037 348.121C446.064 349.095 444.745 349.642 443.369 349.642Z" fill="#E6E6E6"/>
<path d="M250.028 294.538C262.183 294.538 272.037 284.676 272.037 272.51C272.037 260.344 262.183 250.482 250.028 250.482C237.873 250.482 228.019 260.344 228.019 272.51C228.019 284.676 237.873 294.538 250.028 294.538Z" fill="#E6E6E6"/>
<path d="M250.028 358.031C262.183 358.031 272.037 348.169 272.037 336.003C272.037 323.837 262.183 313.975 250.028 313.975C237.873 313.975 228.019 323.837 228.019 336.003C228.019 348.169 237.873 358.031 250.028 358.031Z" fill="#E6E6E6"/>
<path d="M421.97 395.611H298.783C297.407 395.611 296.088 395.064 295.115 394.09C294.142 393.117 293.595 391.796 293.595 390.419C293.595 389.042 294.142 387.721 295.115 386.747C296.088 385.774 297.407 385.227 298.783 385.227H421.97C423.346 385.227 424.665 385.774 425.638 386.747C426.611 387.721 427.157 389.042 427.157 390.419C427.157 391.796 426.611 393.117 425.638 394.09C424.665 395.064 423.346 395.611 421.97 395.611Z" fill="#E6E6E6"/>
<path d="M443.369 413.135H298.783C297.407 413.135 296.088 412.588 295.115 411.614C294.142 410.64 293.595 409.32 293.595 407.943C293.595 406.566 294.142 405.245 295.115 404.271C296.088 403.298 297.407 402.75 298.783 402.75H443.369C444.745 402.75 446.064 403.298 447.037 404.271C448.01 405.245 448.557 406.566 448.557 407.943C448.557 409.32 448.01 410.64 447.037 411.614C446.064 412.588 444.745 413.135 443.369 413.135Z" fill="#E6E6E6"/>
<path d="M250.028 421.524C262.183 421.524 272.037 411.661 272.037 399.496C272.037 387.33 262.183 377.467 250.028 377.467C237.873 377.467 228.019 387.33 228.019 399.496C228.019 411.661 237.873 421.524 250.028 421.524Z" fill="#E6E6E6"/>
</g>
<defs>
<clipPath id="clip0_37_41">
<rect width="100%" height="100%" fill="white"/>
</clipPath>
</defs>
</svg>
