<svg width="width" height="height" viewBox="0 0 448 315" fill="none" xmlns="http://www.w3.org/2000/svg">
<g clip-path="url(#clip0_95_198)">
<path d="M176.167 197.686C176.305 196.749 176.235 195.794 175.963 194.886C175.691 193.979 175.223 193.142 174.593 192.435C173.962 191.728 173.183 191.168 172.312 190.794C171.441 190.419 170.498 190.24 169.55 190.269L127.999 148.323L119.791 159.78L163.215 197.409C163.369 198.996 164.101 200.471 165.272 201.555C166.443 202.64 167.971 203.257 169.568 203.291C171.164 203.325 172.718 202.774 173.934 201.741C175.15 200.708 175.945 199.265 176.167 197.686Z" fill="#FFB8B8"/>
<path d="M156.484 173.465L145.879 184.042C145.371 184.546 144.685 184.83 143.969 184.833C143.254 184.835 142.565 184.557 142.053 184.058L113.074 155.611C112.072 154.627 111.275 153.455 110.73 152.162C110.184 150.869 109.901 149.481 109.897 148.078C109.892 146.675 110.166 145.285 110.703 143.988C111.239 142.692 112.028 141.514 113.023 140.524C114.019 139.534 115.201 138.75 116.501 138.219C117.802 137.688 119.195 137.419 120.6 137.429C122.005 137.438 123.394 137.726 124.687 138.275C125.98 138.824 127.152 139.624 128.133 140.628L156.508 169.65C157.006 170.162 157.282 170.849 157.278 171.562C157.273 172.276 156.988 172.959 156.484 173.465Z" fill="#FD4552"/>
<path d="M119.29 121.547C127.482 121.547 134.123 114.916 134.123 106.737C134.123 98.558 127.482 91.9276 119.29 91.9276C111.099 91.9276 104.458 98.558 104.458 106.737C104.458 114.916 111.099 121.547 119.29 121.547Z" fill="#FFB8B8"/>
<path d="M69.1729 284.205L72.9285 290.575L99.3261 279.143L93.7829 269.741L69.1729 284.205Z" fill="#FFB8B8"/>
<path d="M70.2973 281.356L77.6934 293.902C78.3124 294.952 78.7184 296.113 78.8879 297.32C79.0573 298.527 78.987 299.755 78.6811 300.934C78.3751 302.113 77.8395 303.221 77.1048 304.194C76.3701 305.167 75.4507 305.985 74.3991 306.603L74.1389 306.756L62.0293 286.215L70.2973 281.356Z" fill="#2F2E41"/>
<path d="M112.688 307.155H120.092L123.613 278.642L112.687 278.642L112.688 307.155Z" fill="#FFB8B8"/>
<path d="M110.799 304.742L125.379 304.741H125.38C126.6 304.741 127.808 304.981 128.936 305.447C130.063 305.913 131.087 306.597 131.95 307.458C132.813 308.32 133.497 309.342 133.964 310.468C134.431 311.594 134.672 312.8 134.672 314.018V314.32L110.799 314.321L110.799 304.742Z" fill="#2F2E41"/>
<path d="M82.9226 289.88C82.4965 289.88 82.0763 289.781 81.6961 289.589C81.3159 289.396 80.9863 289.118 80.734 288.775L73.5937 279.092C73.3759 278.797 73.2203 278.46 73.1363 278.103C73.0524 277.746 73.0418 277.376 73.1053 277.015C73.1688 276.653 73.305 276.309 73.5057 276.001C73.7063 275.694 73.9673 275.431 74.2728 275.227L106.046 254.038L86.8746 203.706L127.873 207.084L129.254 250.336C129.383 254.276 128.438 258.176 126.518 261.619C124.599 265.063 121.777 267.921 118.356 269.887L84.2803 289.516C83.8678 289.754 83.3994 289.88 82.9226 289.88Z" fill="#2F2E41"/>
<path d="M112.912 301.367C112.208 301.365 111.533 301.092 111.028 300.604C110.522 300.116 110.226 299.451 110.201 298.75L108.698 256.613L127.303 255.635L125.822 298.074C125.8 298.746 125.528 299.386 125.059 299.869C124.59 300.352 123.958 300.644 123.286 300.686L113.096 301.361C113.034 301.365 112.973 301.367 112.912 301.367Z" fill="#2F2E41"/>
<path d="M132.617 215.451C127.883 215.451 111.35 210.135 105.61 208.24C104.751 208.926 100.034 212.448 94.5275 211.804C91.1299 211.406 88.1389 209.486 85.6375 206.097C80.1136 198.611 86.9363 166.511 93.6325 140.901C94.9749 135.724 98.2752 131.268 102.84 128.471C107.404 125.673 112.877 124.751 118.108 125.899C121.899 126.734 125.382 128.609 128.165 131.312C130.948 134.015 132.921 137.44 133.862 141.201C135.123 146.325 134.038 152.352 133.246 156.754C132.874 158.823 132.58 160.457 132.68 161.261C133.069 164.365 135.228 213.05 133.84 215.129C133.692 215.351 133.264 215.451 132.617 215.451Z" fill="#FD4552"/>
<path d="M115.3 215.537C116.061 214.972 116.688 214.247 117.138 213.413C117.588 212.579 117.849 211.657 117.903 210.712C117.957 209.766 117.803 208.82 117.452 207.941C117.1 207.061 116.56 206.27 115.869 205.621L116.162 146.625L102.245 148.939L106.333 206.202C105.319 207.434 104.793 208.994 104.853 210.587C104.914 212.18 105.559 213.696 106.664 214.847C107.769 215.997 109.259 216.703 110.851 216.83C112.442 216.958 114.025 216.498 115.3 215.537Z" fill="#FFB8B8"/>
<path d="M118.519 184.512H103.529C102.814 184.51 102.127 184.227 101.619 183.724C101.11 183.221 100.82 182.539 100.812 181.824L100.444 141.249C100.431 139.846 100.697 138.455 101.226 137.155C101.756 135.855 102.538 134.673 103.527 133.677C104.517 132.681 105.695 131.891 106.992 131.352C108.29 130.813 109.682 130.537 111.087 130.539C112.492 130.54 113.883 130.82 115.179 131.362C116.475 131.904 117.651 132.697 118.638 133.695C119.626 134.694 120.405 135.878 120.931 137.179C121.457 138.48 121.72 139.872 121.704 141.275L121.237 181.83C121.226 182.544 120.935 183.225 120.427 183.726C119.919 184.228 119.234 184.51 118.519 184.512Z" fill="#FD4552"/>
<path d="M115.514 121.485C108.723 121.497 102.316 116.138 101.139 109.46C100.718 106.836 100.908 104.151 101.694 101.613C102.548 98.7234 104.013 96.0502 105.989 93.7737C107.965 91.4971 110.408 89.67 113.151 88.4156C115.894 87.1612 118.875 86.5086 121.892 86.5018C124.91 86.495 127.894 87.1341 130.643 88.3762C132.459 89.197 134.249 90.3759 135.081 92.1853C135.912 93.9948 135.392 96.5239 133.572 97.338C132.383 97.8701 130.891 97.6088 129.836 98.3726C128.32 99.4696 128.71 101.804 129.387 103.547C130.064 105.289 130.829 107.398 129.695 108.884C128.638 110.27 126.525 110.227 124.861 109.705C123.197 109.184 121.554 108.311 119.819 108.488C117.289 108.747 115.47 111.261 115.133 113.778C114.797 116.296 115.589 118.812 116.371 121.229L115.514 121.485Z" fill="#2F2E41"/>
<path d="M301.115 136.599C301.115 96.1008 333.996 0 374.558 0C415.119 0 448 96.1008 448 136.599C448 156.047 440.262 174.699 426.489 188.451C412.716 202.202 394.036 209.928 374.558 209.928C355.079 209.928 336.399 202.202 322.626 188.451C308.853 174.699 301.115 156.047 301.115 136.599Z" fill="#FD4552"/>
<path d="M374.558 315C374.398 315 374.244 314.937 374.131 314.823C374.018 314.71 373.954 314.557 373.954 314.397V61.5832C373.954 61.4233 374.018 61.2699 374.131 61.1568C374.244 61.0437 374.398 60.9802 374.558 60.9802C374.718 60.9802 374.872 61.0437 374.985 61.1568C375.098 61.2699 375.162 61.4233 375.162 61.5832V314.397C375.162 314.557 375.098 314.71 374.985 314.823C374.872 314.937 374.718 315 374.558 315Z" fill="#3F3D56"/>
<path d="M374.557 110.391C374.478 110.391 374.399 110.375 374.326 110.345C374.253 110.315 374.186 110.27 374.13 110.214L345.062 81.1906C344.95 81.0773 344.887 80.9243 344.888 80.7651C344.888 80.6058 344.952 80.4532 345.065 80.3406C345.177 80.228 345.33 80.1646 345.49 80.1641C345.649 80.1636 345.802 80.2261 345.916 80.338L374.984 109.361C375.069 109.446 375.126 109.553 375.15 109.67C375.173 109.787 375.161 109.908 375.115 110.018C375.069 110.129 374.992 110.223 374.893 110.289C374.793 110.355 374.677 110.391 374.557 110.391Z" fill="#3F3D56"/>
<path d="M374.558 160.636C374.439 160.636 374.322 160.6 374.222 160.534C374.123 160.468 374.046 160.374 374 160.264C373.954 160.154 373.942 160.032 373.966 159.915C373.989 159.798 374.046 159.691 374.131 159.607L422.811 111.001C422.925 110.89 423.078 110.827 423.237 110.828C423.397 110.828 423.55 110.892 423.662 111.004C423.775 111.117 423.839 111.269 423.839 111.428C423.84 111.588 423.777 111.741 423.665 111.854L374.985 160.459C374.929 160.515 374.862 160.56 374.789 160.59C374.716 160.62 374.637 160.636 374.558 160.636Z" fill="#3F3D56"/>
<path d="M171.313 197.343C180.948 195.168 191.864 202.693 192.202 212.796C192.297 215.637 191.463 218.621 189.273 220.554C187.465 222.15 184.775 222.955 182.438 222.175C177.941 220.674 177.7 214.417 180.113 211.075C183.38 206.549 189.851 205.777 194.987 206.315C201.265 206.973 207.232 209.721 212.239 213.489C222.263 221.031 228.646 232.589 233.812 243.757C239.101 255.213 242.947 267.28 245.261 279.681C245.553 281.239 245.82 282.801 246.062 284.367C246.131 284.596 246.287 284.789 246.497 284.905C246.707 285.02 246.954 285.048 247.185 284.982C247.412 284.91 247.603 284.754 247.718 284.545C247.833 284.336 247.863 284.091 247.802 283.861C245.687 270.328 241.781 257.136 236.186 244.631C230.777 232.528 223.957 219.974 213.108 211.897C207.7 207.87 201.314 205.068 194.555 204.469C188.865 203.965 182.128 205.167 178.589 210.108C175.798 214.006 176.082 220.484 180.401 223.198C182.775 224.691 185.792 224.516 188.258 223.356C189.566 222.711 190.719 221.79 191.635 220.656C192.551 219.522 193.209 218.202 193.564 216.789C195.097 211.178 192.769 205.11 188.776 201.099C185.029 197.325 179.936 195.187 174.614 195.153C173.332 195.167 172.055 195.319 170.806 195.606C169.669 195.863 170.177 197.599 171.313 197.343Z" fill="#CCCCCC"/>
<path d="M217.779 308.447L211.791 298.24L219.174 293.922L225.162 304.129C225.735 305.106 225.896 306.272 225.609 307.368C225.322 308.464 224.611 309.401 223.632 309.974C222.653 310.546 221.486 310.707 220.389 310.421C219.291 310.135 218.352 309.424 217.779 308.447Z" fill="#FD4552"/>
<path d="M197.981 287.231C200.889 287.231 203.247 284.877 203.247 281.974C203.247 279.07 200.889 276.716 197.981 276.716C195.073 276.716 192.716 279.07 192.716 281.974C192.716 284.877 195.073 287.231 197.981 287.231Z" fill="#FD4552"/>
<path d="M240.946 308.447L234.958 298.24L242.341 293.922L248.328 304.129C248.901 305.106 249.061 306.271 248.773 307.366C248.486 308.461 247.776 309.398 246.797 309.97C245.819 310.542 244.653 310.703 243.556 310.418C242.458 310.132 241.52 309.423 240.946 308.447Z" fill="#FD4552"/>
<path d="M198.981 292.565C198.985 289.603 200.165 286.763 202.262 284.669C204.36 282.575 207.204 281.397 210.17 281.393H245.59C246.844 281.395 248.046 281.893 248.932 282.778C249.819 283.663 250.317 284.863 250.319 286.115V290.139C250.315 293.744 248.879 297.2 246.326 299.749C243.773 302.299 240.311 303.732 236.701 303.736H210.17C207.204 303.733 204.36 302.555 202.262 300.461C200.165 298.366 198.985 295.527 198.981 292.565Z" fill="#3F3D56"/>
<path d="M207.149 309.763V297.934H215.706V309.763C215.706 310.896 215.255 311.982 214.453 312.783C213.65 313.585 212.562 314.035 211.428 314.035C210.293 314.035 209.205 313.585 208.402 312.783C207.6 311.982 207.149 310.896 207.149 309.763Z" fill="#3F3D56"/>
<path d="M231.978 309.763V297.934H240.534V309.763C240.534 310.324 240.424 310.88 240.21 311.399C239.995 311.918 239.68 312.39 239.283 312.787C238.885 313.184 238.413 313.499 237.894 313.714C237.375 313.929 236.818 314.04 236.256 314.04C235.693 314.04 235.137 313.929 234.617 313.714C234.098 313.499 233.626 313.184 233.229 312.787C232.831 312.39 232.516 311.918 232.302 311.399C232.087 310.88 231.977 310.324 231.978 309.763Z" fill="#3F3D56"/>
<path d="M266.79 262.963C267.665 261.879 268.936 261.187 270.322 261.037C271.709 260.887 273.098 261.293 274.185 262.165C275.273 263.037 275.969 264.304 276.122 265.688C276.275 267.072 275.871 268.46 275 269.547L266.345 280.307L258.135 273.723L266.79 262.963Z" fill="#FD4552"/>
<path d="M245.941 284.159L252.875 275.539C254.561 273.448 257.009 272.11 259.681 271.819C262.354 271.528 265.034 272.307 267.132 273.985L269.298 275.723C271.795 277.73 273.393 280.644 273.741 283.825C274.089 287.007 273.158 290.197 271.154 292.695L265.441 299.796C264.81 300.579 263.893 301.08 262.893 301.189C261.892 301.298 260.889 301.007 260.103 300.378L246.524 289.489C245.74 288.858 245.238 287.943 245.129 286.944C245.02 285.945 245.312 284.944 245.941 284.159Z" fill="#3F3D56"/>
<path d="M267.82 261.682C268.118 261.312 268.486 261.004 268.902 260.776C269.319 260.548 269.777 260.404 270.25 260.353C270.722 260.301 271.2 260.343 271.657 260.476C272.113 260.609 272.539 260.83 272.909 261.128C273.28 261.425 273.588 261.792 273.817 262.208C274.045 262.624 274.189 263.082 274.241 263.553C274.293 264.025 274.251 264.503 274.117 264.958C273.984 265.414 273.762 265.839 273.465 266.209L263.78 278.249L258.135 273.723L267.82 261.682Z" fill="#3F3D56"/>
<path d="M253.945 281.809L268.826 293.742C269.911 294.617 270.604 295.885 270.754 297.269C270.903 298.653 270.497 300.039 269.624 301.125C268.751 302.21 267.483 302.905 266.097 303.058C264.711 303.211 263.321 302.809 262.232 301.94L247.351 290.006L253.945 281.809Z" fill="#3F3D56"/>
<path d="M270.271 301.523C271.04 300.568 271.232 299.448 270.7 299.022C270.169 298.596 269.115 299.024 268.347 299.979C267.579 300.934 267.387 302.054 267.918 302.48C268.45 302.906 269.503 302.478 270.271 301.523Z" fill="#FD4552"/>
<path d="M417.898 314.888H0.603899C0.443735 314.888 0.29013 314.825 0.176877 314.712C0.0636244 314.599 0 314.445 0 314.285C0 314.125 0.0636244 313.972 0.176877 313.859C0.29013 313.746 0.443735 313.682 0.603899 313.682H417.898C418.058 313.682 418.212 313.746 418.325 313.859C418.438 313.972 418.502 314.125 418.502 314.285C418.502 314.445 418.438 314.599 418.325 314.712C418.212 314.825 418.058 314.888 417.898 314.888Z" fill="#CCCCCC"/>
</g>
<defs>
<clipPath id="clip0_95_198">
<rect width="448" height="315" fill="white"/>
</clipPath>
</defs>
</svg>
