<svg width="" height="" viewBox="0 0 343 301" fill="none" xmlns="http://www.w3.org/2000/svg">
<path d="M105.371 227.396V228.756C105.373 231.009 106.271 233.169 107.868 234.762C109.465 236.355 111.63 237.251 113.888 237.253H186.112C188.371 237.252 190.537 236.356 192.134 234.763C193.731 233.17 194.629 231.009 194.629 228.756V227.396C194.634 225.408 193.934 223.482 192.653 221.958C192.227 221.452 191.745 220.996 191.216 220.599H153.754C153.303 220.599 152.869 220.42 152.55 220.101C152.231 219.782 152.051 219.35 152.051 218.9H113.888C111.63 218.903 109.466 219.799 107.869 221.392C106.273 222.984 105.374 225.144 105.371 227.396Z" fill="#3F3D56"/>
<path d="M145.234 299.452H154.092V236.915H145.234V299.452Z" fill="#3F3D56"/>
<path d="M120.023 299.141C120.023 300.096 133.446 299.51 150.003 299.51C166.561 299.51 179.983 300.096 179.983 299.141C179.983 298.186 166.561 290.615 150.003 290.615C133.446 290.615 120.023 298.186 120.023 299.141Z" fill="#3F3D56"/>
<path d="M119.271 225.962L149.496 230.775L184.613 236.369L196.789 238.306C197.958 238.49 199.153 238.204 200.111 237.511C201.069 236.818 201.712 235.774 201.9 234.608L202.452 231.169L202.963 227.967L203.385 225.33C203.48 224.74 203.455 224.137 203.309 223.558C203.164 222.978 202.902 222.434 202.54 221.958C202.112 221.373 201.542 220.906 200.884 220.599H153.754C153.303 220.599 152.87 220.42 152.55 220.101C152.231 219.782 152.051 219.35 152.051 218.899V217.56C152.051 217.11 152.231 216.678 152.55 216.359C152.87 216.04 153.303 215.861 153.754 215.861H172.274L163.736 214.502L137.49 210.321L122.167 207.881C120.995 207.696 119.797 207.982 118.837 208.676C117.876 209.371 117.231 210.417 117.043 211.585L115.557 220.857C115.376 222.025 115.665 223.216 116.36 224.173C117.056 225.129 118.102 225.772 119.271 225.962Z" fill="#FD4552"/>
<path d="M184.613 224.671V276.474C184.615 277.654 185.086 278.786 185.922 279.62C186.759 280.455 187.893 280.924 189.076 280.926H198.499C199.682 280.924 200.817 280.455 201.653 279.62C202.49 278.786 202.961 277.654 202.962 276.474V224.671C202.964 223.688 202.635 222.733 202.029 221.958C201.58 221.363 200.984 220.895 200.298 220.599H187.271C186.588 220.897 185.995 221.365 185.547 221.958C184.941 222.733 184.613 223.688 184.613 224.671Z" fill="#FD4552"/>
<path d="M156.214 136.99C156.262 137.452 156.382 137.904 156.569 138.329C156.852 138.979 157.29 139.55 157.843 139.995L157.863 140.008L184.75 161.767L185.145 162.08L190.712 166.586L192.395 167.946H221.509L219.833 166.586L196.823 147.961L181.404 135.481L169.406 125.775C168.703 125.204 167.842 124.862 166.939 124.796C166.935 124.792 166.931 124.789 166.925 124.789C166.657 124.77 166.388 124.774 166.121 124.803C165.721 124.843 165.329 124.939 164.956 125.088C164.701 125.18 164.459 125.303 164.234 125.455C163.81 125.713 163.435 126.042 163.123 126.427L157.277 133.612L157.189 133.728C156.818 134.18 156.541 134.702 156.374 135.262C156.207 135.822 156.152 136.409 156.214 136.99Z" fill="#FD4552"/>
<path d="M157.863 140.008C158.37 141.272 159.107 142.431 160.037 143.428L177.936 162.61C178.368 163.006 178.875 163.314 179.427 163.514C179.979 163.715 180.565 163.805 181.152 163.779C181.739 163.753 182.315 163.612 182.846 163.363C183.378 163.115 183.856 162.764 184.252 162.331L184.75 161.767L184.967 161.522L192.701 152.869L196.026 149.144C196.247 148.915 196.439 148.659 196.598 148.383C196.68 148.247 196.755 148.104 196.823 147.961C197.102 147.326 197.23 146.635 197.198 145.943C197.175 145.353 197.034 144.774 196.782 144.241C196.53 143.707 196.174 143.229 195.733 142.836L174.979 127.012C172.689 125.26 169.805 124.465 166.939 124.796C166.935 124.792 166.93 124.789 166.925 124.789C166.288 124.869 165.659 125 165.044 125.183C164.772 125.258 164.506 125.353 164.234 125.455C162.474 126.116 160.914 127.216 159.703 128.65C158.385 130.195 157.517 132.07 157.192 134.073C156.868 136.075 157.1 138.128 157.863 140.008Z" fill="#2F2E41"/>
<path d="M149.364 108.998C168.225 108.998 183.515 93.7441 183.515 74.9277C183.515 56.1112 168.225 40.8575 149.364 40.8575C130.503 40.8575 115.213 56.1112 115.213 74.9277C115.213 93.7441 130.503 108.998 149.364 108.998Z" fill="#FD4552"/>
<path d="M140.27 221.265L152.937 223.277L153.223 223.325L172.478 226.39L184.613 228.328L202.451 231.169L202.963 231.25L205.613 231.672L217.789 233.609C218.958 233.793 220.152 233.507 221.11 232.814C222.068 232.121 222.711 231.077 222.899 229.911L223.962 223.277L224.384 220.64C224.384 220.626 224.391 220.612 224.391 220.599H153.754C153.303 220.599 152.87 220.42 152.55 220.101C152.231 219.782 152.051 219.35 152.051 218.899V217.56C152.051 217.11 152.231 216.678 152.55 216.359C152.87 216.04 153.303 215.861 153.754 215.861H176.076V208.431L174.713 208.214L167.981 207.14L143.159 203.191C141.989 203.005 140.793 203.29 139.834 203.984C138.875 204.677 138.23 205.722 138.042 206.888L137.49 210.321L136.557 216.167C136.374 217.334 136.662 218.526 137.358 219.481C138.054 220.437 139.101 221.078 140.27 221.265Z" fill="#FD4552"/>
<path d="M102.884 191.166C102.884 218.94 105.712 235.553 149.319 230.795C149.38 230.788 149.435 230.781 149.496 230.775C157.274 230.008 164.966 228.541 172.478 226.39C176.382 225.253 180.177 223.77 183.816 221.958C184.674 221.523 185.499 221.068 186.31 220.599H153.754C153.303 220.599 152.869 220.42 152.55 220.101C152.231 219.782 152.051 219.35 152.051 218.9V217.56C152.051 217.11 152.231 216.678 152.55 216.359C152.869 216.04 153.303 215.861 153.754 215.861H176.076V172.928C176.077 171.608 176.604 170.341 177.54 169.407C178.477 168.473 179.746 167.948 181.07 167.946H199.228C199.071 167.497 198.915 167.042 198.745 166.586C197.041 161.884 195.022 157.301 192.701 152.869C189.521 146.715 185.737 140.89 181.404 135.481C178.387 131.712 174.999 128.253 171.293 125.156C164.458 119.528 157.018 116.047 149.468 116.047C121.628 116.047 102.884 163.392 102.884 191.166Z" fill="#2F2E41"/>
<path d="M148.646 87.5553L148.611 86.282C150.985 86.2162 153.078 86.0676 154.651 84.9212C155.097 84.5777 155.464 84.1425 155.726 83.645C155.988 83.1476 156.14 82.5997 156.171 82.0385C156.198 81.6956 156.146 81.351 156.019 81.0314C155.891 80.7118 155.691 80.4259 155.435 80.1958C154.391 79.3162 152.711 79.6009 151.486 80.161L150.43 80.6441L152.455 65.8811L153.72 66.0539L151.997 78.6118C152.702 78.3508 153.462 78.2701 154.206 78.3769C154.95 78.4838 155.656 78.7748 156.259 79.2235C156.664 79.5766 156.982 80.0185 157.188 80.5146C157.394 81.0107 157.482 81.5475 157.446 82.0832C157.409 82.8372 157.207 83.574 156.854 84.2418C156.501 84.9097 156.006 85.4925 155.404 85.9494C153.383 87.4228 150.757 87.4961 148.646 87.5553Z" fill="#2F2E41"/>
<path d="M166.847 67.1368H159.973V68.41H166.847V67.1368Z" fill="#2F2E41"/>
<path d="M145.151 67.1368H138.277V68.41H145.151V67.1368Z" fill="#2F2E41"/>
<path d="M127.543 148.954C127.597 149.077 127.658 149.198 127.726 149.314C127.795 149.436 127.87 149.554 127.951 149.667L142.887 171.113L144.045 172.779L156.228 190.262L167.981 207.14L172.737 213.978C172.865 214.164 173.009 214.34 173.167 214.502C173.902 215.273 174.891 215.756 175.953 215.861H176.076V186.693L174.713 184.736L159.43 162.793L143.016 139.227C142.34 138.257 141.307 137.595 140.142 137.385C138.977 137.174 137.776 137.433 136.802 138.105L131.767 141.592L129.062 143.468C128.207 144.062 127.587 144.935 127.309 145.937C127.032 146.939 127.114 148.006 127.543 148.954Z" fill="#FD4552"/>
<path d="M125.205 148.43L125.88 149.783L125.887 149.79L126.071 150.15L137.02 171.834C137.637 172.842 138.63 173.566 139.78 173.846C140.931 174.126 142.146 173.941 143.159 173.329L143.868 172.888L144.045 172.779L158.163 163.942C158.667 163.638 159.105 163.237 159.453 162.762C159.801 162.288 160.051 161.75 160.189 161.178C160.327 160.607 160.35 160.014 160.258 159.434C160.165 158.854 159.958 158.297 159.648 157.797L144.141 136.82C142.62 134.765 140.437 133.294 137.958 132.655C135.479 132.016 132.855 132.249 130.527 133.313C130.002 133.549 129.496 133.826 129.014 134.142C126.735 135.645 125.088 137.93 124.386 140.564C123.684 143.197 123.975 145.997 125.205 148.43Z" fill="#2F2E41"/>
<path d="M205.613 220.599V271.777C205.615 272.957 206.085 274.089 206.922 274.923C207.759 275.758 208.893 276.227 210.076 276.229H219.499C220.682 276.227 221.816 275.758 222.653 274.923C223.49 274.089 223.96 272.957 223.962 271.777V220.599H205.613Z" fill="#FD4552"/>
<path d="M150.688 217.56V218.9C150.689 219.607 150.936 220.293 151.385 220.84C151.835 221.388 152.46 221.764 153.155 221.904C153.25 221.918 153.346 221.938 153.441 221.945C153.543 221.952 153.645 221.958 153.755 221.958H258.793C260.48 221.958 262.097 221.29 263.29 220.101C264.484 218.912 265.155 217.299 265.157 215.616V172.928C265.155 171.246 264.484 169.633 263.29 168.444C262.097 167.255 260.48 166.587 258.793 166.586H181.07C179.385 166.588 177.769 167.257 176.577 168.446C175.385 169.635 174.715 171.247 174.713 172.928V214.502H153.755C152.941 214.502 152.162 214.824 151.587 215.398C151.012 215.971 150.689 216.749 150.688 217.56Z" fill="white"/>
<path d="M150.688 217.56V218.9C150.689 219.607 150.936 220.293 151.385 220.84C151.835 221.388 152.46 221.764 153.155 221.904C153.25 221.918 153.346 221.938 153.441 221.945C153.543 221.952 153.645 221.958 153.755 221.958H258.793C260.48 221.958 262.097 221.29 263.29 220.101C264.484 218.912 265.155 217.299 265.157 215.616V172.928C265.155 171.246 264.484 169.633 263.29 168.444C262.097 167.255 260.48 166.587 258.793 166.586H181.07C179.385 166.588 177.769 167.257 176.577 168.446C175.385 169.635 174.715 171.247 174.713 172.928V214.502H153.755C152.941 214.502 152.162 214.824 151.587 215.398C151.012 215.971 150.689 216.749 150.688 217.56ZM152.051 218.9V217.56C152.051 217.11 152.231 216.678 152.55 216.359C152.87 216.04 153.303 215.861 153.755 215.861H176.076V172.928C176.078 171.608 176.605 170.341 177.541 169.407C178.477 168.473 179.746 167.948 181.07 167.946H258.793C260.118 167.946 261.389 168.471 262.327 169.405C263.264 170.339 263.792 171.606 263.794 172.928V215.616C263.792 216.938 263.264 218.205 262.327 219.139C261.389 220.073 260.118 220.598 258.793 220.599H153.755C153.303 220.599 152.87 220.42 152.55 220.101C152.231 219.782 152.051 219.35 152.051 218.9Z" fill="#3F3D56"/>
<path d="M219.934 199.5C222.828 199.5 225.174 197.16 225.174 194.273C225.174 191.386 222.828 189.046 219.934 189.046C217.04 189.046 214.694 191.386 214.694 194.273C214.694 197.16 217.04 199.5 219.934 199.5Z" fill="#FD4552"/>
<path d="M176.096 215.222H174.733V221.34H176.096V215.222Z" fill="#3F3D56"/>
<path d="M156.956 56.3812C164.824 61.7839 176.909 58.8052 180.475 49.6772C181.346 47.4562 181.734 45.0753 181.615 42.6925C181.495 40.3098 180.87 37.9798 179.782 35.8571C178.478 33.634 176.703 31.724 174.582 30.2614C172.461 28.7988 170.045 27.8193 167.504 27.3919C160.757 25.9925 153.781 27.8713 147.613 30.6001C147.391 30.7162 147.138 30.7612 146.889 30.7291C146.641 30.697 146.408 30.5892 146.222 30.4204C140.331 25.7214 131.771 27.7616 125.731 31.0463C119.198 34.7167 113.674 39.9458 109.649 46.2683C105.544 52.537 102.979 59.6881 102.164 67.1378C101.417 75.1887 102.732 83.2972 105.982 90.6996C109.233 98.102 114.314 104.555 120.746 109.45C121.915 110.325 120.772 112.32 119.587 111.433C113.092 106.632 107.879 100.305 104.408 93.0099C100.937 85.7151 99.3144 77.6773 99.6841 69.6063C100.054 61.5354 102.404 53.6798 106.528 46.7332C110.651 39.7866 116.421 33.9627 123.328 29.776C130.573 25.4159 140.671 23.0733 147.845 28.7962L146.454 28.6166C152.623 25.8872 159.382 23.9606 166.18 24.8556C171.955 25.6159 177.628 28.3863 180.939 33.3204C182.394 35.585 183.348 38.1342 183.738 40.7975C184.128 43.4608 183.944 46.1768 183.2 48.7635C182.474 51.3204 181.165 53.6737 179.375 55.6377C177.585 57.6017 175.363 59.1227 172.885 60.0809C170.109 61.1903 167.106 61.6135 164.131 61.3147C161.156 61.0159 158.297 60.004 155.797 58.3646C154.586 57.5333 155.733 55.5418 156.956 56.3812Z" fill="#2F2E41"/>
<path d="M320.617 301H0.839312C0.616713 301 0.40323 300.912 0.245828 300.755C0.0884266 300.598 0 300.385 0 300.163C0 299.941 0.0884266 299.728 0.245828 299.571C0.40323 299.414 0.616713 299.325 0.839312 299.325H320.617C320.84 299.325 321.053 299.414 321.211 299.571C321.368 299.728 321.457 299.941 321.457 300.163C321.457 300.385 321.368 300.598 321.211 300.755C321.053 300.912 320.84 301 320.617 301Z" fill="#3F3D56"/>
</svg>
