<svg width="width" height="height" viewBox="0 0 403 298" fill="none" xmlns="http://www.w3.org/2000/svg">
<g clip-path="url(#clip0_95_98)">
<path d="M278.758 165.52H162.188C160.328 165.518 158.545 164.778 157.229 163.463C155.914 162.148 155.174 160.364 155.172 158.504V107.412C155.174 105.552 155.914 103.768 157.229 102.453C158.545 101.138 160.328 100.398 162.188 100.396H278.758C280.618 100.398 282.402 101.138 283.717 102.453C285.033 103.768 285.773 105.552 285.775 107.412V158.504C285.773 160.364 285.033 162.148 283.717 163.463C282.402 164.778 280.618 165.518 278.758 165.52Z" fill="#E6E6E6"/>
<path d="M31.5595 40.1943C36.2571 40.1943 40.0653 36.3864 40.0653 31.6891C40.0653 26.9918 36.2571 23.1839 31.5595 23.1839C26.8619 23.1839 23.0537 26.9918 23.0537 31.6891C23.0537 36.3864 26.8619 40.1943 31.5595 40.1943Z" fill="#FD4552"/>
<path d="M34.0618 37.6927C32.2805 37.6927 30.5393 37.1646 29.0583 36.175C27.5772 35.1855 26.4229 33.779 25.7412 32.1335C25.0596 30.488 24.8812 28.6773 25.2287 26.9304C25.5762 25.1835 26.434 23.5789 27.6935 22.3195C28.953 21.06 30.5578 20.2023 32.3048 19.8549C34.0518 19.5074 35.8626 19.6857 37.5083 20.3673C39.1539 21.0489 40.5605 22.2032 41.5501 23.6841C42.5397 25.1651 43.0679 26.9062 43.0679 28.6873C43.0652 31.0748 42.1155 33.3638 40.4271 35.0521C38.7387 36.7404 36.4495 37.69 34.0618 37.6927ZM34.0618 20.6824C32.4785 20.6824 30.9307 21.1519 29.6142 22.0315C28.2977 22.9111 27.2716 24.1613 26.6657 25.624C26.0598 27.0867 25.9013 28.6962 26.2102 30.2489C26.5191 31.8017 27.2815 33.2281 28.4011 34.3476C29.5207 35.4671 30.9471 36.2294 32.5 36.5383C34.0529 36.8472 35.6625 36.6887 37.1253 36.0828C38.5881 35.4769 39.8384 34.4509 40.7181 33.1345C41.5977 31.8181 42.0672 30.2705 42.0672 28.6873C42.0648 26.565 41.2206 24.5303 39.7198 23.0297C38.219 21.529 36.1842 20.6848 34.0618 20.6824Z" fill="#3F3D56"/>
<path d="M135.13 147.259C139.827 147.259 143.636 143.451 143.636 138.754C143.636 134.057 139.827 130.249 135.13 130.249C130.432 130.249 126.624 134.057 126.624 138.754C126.624 143.451 130.432 147.259 135.13 147.259Z" fill="#E6E6E6"/>
<path d="M137.632 144.758C135.851 144.758 134.11 144.229 132.629 143.24C131.148 142.25 129.993 140.844 129.312 139.198C128.63 137.553 128.452 135.742 128.799 133.995C129.147 132.248 130.004 130.644 131.264 129.384C132.523 128.125 134.128 127.267 135.875 126.92C137.622 126.572 139.433 126.751 141.079 127.432C142.724 128.114 144.131 129.268 145.12 130.749C146.11 132.23 146.638 133.971 146.638 135.752C146.636 138.14 145.686 140.429 143.997 142.117C142.309 143.805 140.02 144.755 137.632 144.758ZM137.632 127.747C136.049 127.747 134.501 128.217 133.185 129.096C131.868 129.976 130.842 131.226 130.236 132.689C129.63 134.152 129.472 135.761 129.78 137.314C130.089 138.867 130.852 140.293 131.971 141.412C133.091 142.532 134.517 143.294 136.07 143.603C137.623 143.912 139.233 143.754 140.696 143.148C142.158 142.542 143.409 141.516 144.288 140.199C145.168 138.883 145.638 137.335 145.638 135.752C145.635 133.63 144.791 131.595 143.29 130.095C141.789 128.594 139.755 127.75 137.632 127.747Z" fill="#3F3D56"/>
<path d="M201.175 82.72C205.872 82.72 209.681 78.9121 209.681 74.2149C209.681 69.5176 205.872 65.7097 201.175 65.7097C196.477 65.7097 192.669 69.5176 192.669 74.2149C192.669 78.9121 196.477 82.72 201.175 82.72Z" fill="#FD4552"/>
<path d="M203.677 80.2185C201.896 80.2185 200.155 79.6903 198.673 78.7008C197.192 77.7113 196.038 76.3048 195.356 74.6593C194.675 73.0137 194.496 71.203 194.844 69.4562C195.191 67.7093 196.049 66.1046 197.309 64.8452C198.568 63.5858 200.173 62.7281 201.92 62.3806C203.667 62.0331 205.478 62.2115 207.124 62.8931C208.769 63.5747 210.176 64.7289 211.165 66.2099C212.155 67.6908 212.683 69.4319 212.683 71.213C212.68 73.6006 211.731 75.8896 210.042 77.5779C208.354 79.2661 206.065 80.2158 203.677 80.2185ZM203.677 63.2082C202.094 63.2082 200.546 63.6777 199.229 64.5572C197.913 65.4368 196.887 66.687 196.281 68.1497C195.675 69.6124 195.517 71.2219 195.825 72.7747C196.134 74.3275 196.897 75.7538 198.016 76.8733C199.136 77.9928 200.562 78.7552 202.115 79.0641C203.668 79.3729 205.278 79.2144 206.741 78.6085C208.203 78.0027 209.454 76.9767 210.333 75.6603C211.213 74.3439 211.682 72.7962 211.682 71.213C211.68 69.0907 210.836 67.0561 209.335 65.5554C207.834 64.0547 205.799 63.2106 203.677 63.2082Z" fill="#3F3D56"/>
<path d="M165.763 116.313H49.1934C47.3331 116.311 45.5496 115.571 44.2342 114.256C42.9188 112.94 42.1789 111.157 42.1768 109.297V58.2047C42.1788 56.3445 42.9187 54.5611 44.2342 53.2458C45.5496 51.9305 47.3331 51.1906 49.1934 51.1884H165.763C167.623 51.1906 169.407 51.9304 170.722 53.2458C172.038 54.5611 172.778 56.3445 172.78 58.2047V109.297C172.778 111.157 172.038 112.94 170.722 114.256C169.407 115.571 167.623 116.311 165.763 116.313Z" fill="#FD4552"/>
<path d="M173.367 111.072H56.797C54.8704 111.07 53.0234 110.304 51.6611 108.942C50.2988 107.579 49.5325 105.732 49.5303 103.806V52.7135C49.5325 50.7871 50.2988 48.9402 51.6611 47.578C53.0234 46.2158 54.8704 45.4496 56.797 45.4474H173.367C175.293 45.4496 177.14 46.2158 178.503 47.578C179.865 48.9402 180.631 50.7871 180.634 52.7135V103.806C180.631 105.732 179.865 107.579 178.503 108.942C177.14 110.304 175.293 111.07 173.367 111.072ZM56.797 46.448C55.1357 46.4499 53.543 47.1106 52.3683 48.2852C51.1936 49.4598 50.5329 51.0524 50.531 52.7135V103.806C50.5329 105.467 51.1936 107.06 52.3683 108.234C53.543 109.409 55.1357 110.07 56.797 110.072H173.367C175.028 110.07 176.621 109.409 177.795 108.234C178.97 107.06 179.631 105.467 179.633 103.806V52.7135C179.631 51.0524 178.97 49.4598 177.795 48.2852C176.621 47.1106 175.028 46.4499 173.367 46.448H56.797Z" fill="#3F3D56"/>
<path d="M286.361 160.279H169.791C167.865 160.277 166.018 159.511 164.655 158.149C163.293 156.786 162.527 154.94 162.524 153.013V101.921C162.527 99.9944 163.293 98.1475 164.655 96.7853C166.018 95.4231 167.865 94.6569 169.791 94.6547H286.361C288.287 94.6569 290.135 95.4231 291.497 96.7853C292.859 98.1475 293.625 99.9944 293.628 101.921V153.013C293.625 154.94 292.859 156.786 291.497 158.149C290.135 159.511 288.287 160.277 286.361 160.279ZM169.791 95.6553C168.13 95.6572 166.537 96.3179 165.363 97.4925C164.188 98.6671 163.527 100.26 163.525 101.921V153.013C163.527 154.674 164.188 156.267 165.362 157.442C166.537 158.616 168.13 159.277 169.791 159.279H286.361C288.022 159.277 289.615 158.616 290.79 157.442C291.964 156.267 292.625 154.674 292.627 153.013V101.921C292.625 100.26 291.964 98.6671 290.79 97.4925C289.615 96.3179 288.022 95.6572 286.361 95.6553H169.791Z" fill="#3F3D56"/>
<path d="M277.082 195.598C276.258 195.597 275.464 195.282 274.862 194.718C274.261 194.154 273.896 193.382 273.842 192.559L273.359 185.19C273.303 184.33 273.591 183.482 274.16 182.833C274.728 182.185 275.531 181.789 276.392 181.733L334.125 177.952C335.963 177.832 337.774 178.446 339.158 179.661C340.543 180.875 341.388 182.59 341.509 184.428C341.629 186.265 341.014 188.076 339.8 189.46C338.585 190.845 336.871 191.69 335.033 191.811L277.3 195.591C277.227 195.596 277.155 195.598 277.082 195.598Z" fill="#FD4552"/>
<path d="M288.467 196.548C287.626 196.547 286.818 196.22 286.213 195.636C285.607 195.053 285.251 194.258 285.218 193.417L284.807 182.412C284.791 181.985 284.859 181.559 285.008 181.159C285.156 180.758 285.382 180.391 285.673 180.078C285.964 179.765 286.313 179.512 286.701 179.334C287.089 179.156 287.509 179.057 287.936 179.041L335.411 177.266C336.273 177.234 337.112 177.546 337.745 178.132C338.377 178.719 338.75 179.533 338.782 180.395L339.194 191.401C339.21 191.827 339.141 192.253 338.993 192.653C338.844 193.054 338.618 193.421 338.328 193.734C338.037 194.047 337.688 194.3 337.3 194.478C336.911 194.656 336.492 194.756 336.065 194.771L288.59 196.546C288.549 196.547 288.508 196.548 288.467 196.548Z" fill="#2F2E41"/>
<path d="M344.1 298H336.715C335.853 297.999 335.026 297.656 334.417 297.046C333.807 296.437 333.464 295.61 333.463 294.748V233.204C333.464 232.341 333.807 231.515 334.417 230.905C335.026 230.296 335.853 229.953 336.715 229.952H344.1C344.962 229.953 345.789 230.296 346.399 230.905C347.008 231.515 347.351 232.341 347.352 233.204V294.748C347.351 295.61 347.008 296.437 346.399 297.046C345.789 297.656 344.962 297.999 344.1 298Z" fill="#2F2E41"/>
<path d="M329.493 298H322.109C321.246 297.999 320.42 297.656 319.81 297.046C319.2 296.437 318.857 295.61 318.856 294.748V233.204C318.857 232.341 319.2 231.515 319.81 230.905C320.42 230.296 321.246 229.953 322.109 229.952H329.493C330.356 229.953 331.182 230.296 331.792 230.905C332.402 231.515 332.745 232.341 332.746 233.204V294.748C332.745 295.61 332.402 296.437 331.792 297.046C331.182 297.656 330.356 297.999 329.493 298Z" fill="#2F2E41"/>
<path d="M332.884 165.723C346.976 165.723 358.401 154.3 358.401 140.208C358.401 126.116 346.976 114.693 332.884 114.693C318.791 114.693 307.366 126.116 307.366 140.208C307.366 154.3 318.791 165.723 332.884 165.723Z" fill="#FD4552"/>
<path d="M321.659 151.446C320.796 151.464 319.938 151.297 319.144 150.956C318.608 150.702 318.134 150.334 317.756 149.877C317.377 149.42 317.103 148.886 316.953 148.312C316.838 147.906 316.819 147.479 316.897 147.064C316.974 146.649 317.147 146.258 317.401 145.921C318.068 145.066 319.218 144.659 320.572 144.763L317.221 135.383L318.163 135.046L322.103 146.074L321.215 145.872C320.185 145.64 318.849 145.691 318.191 146.536C318.031 146.754 317.924 147.007 317.878 147.273C317.831 147.539 317.847 147.813 317.924 148.072C318.038 148.499 318.243 148.896 318.525 149.236C318.806 149.576 319.158 149.852 319.556 150.044C320.948 150.673 322.579 150.449 324.411 150.117L324.589 151.102C323.625 151.304 322.644 151.419 321.659 151.446Z" fill="#2F2E41"/>
<path d="M312.598 137.224L307.323 138.332L307.529 139.311L312.803 138.203L312.598 137.224Z" fill="#2F2E41"/>
<path d="M329.245 133.727L323.971 134.834L324.176 135.814L329.451 134.706L329.245 133.727Z" fill="#2F2E41"/>
<path d="M255.105 197.539L283.869 213.338C284.036 213.449 284.225 213.522 284.423 213.552C284.621 213.582 284.823 213.568 285.015 213.511C285.207 213.454 285.384 213.356 285.534 213.224C285.684 213.091 285.804 212.928 285.884 212.744L292.93 198.016C293.063 197.597 293.042 197.143 292.869 196.738C292.696 196.332 292.383 196.003 291.988 195.809L268.106 183.5C267.812 183.323 267.463 183.261 267.126 183.325C266.788 183.39 266.487 183.576 266.279 183.849L254.35 195.087C254.12 195.497 254.062 195.981 254.189 196.433C254.316 196.885 254.618 197.269 255.028 197.499C255.053 197.513 255.079 197.526 255.105 197.539Z" fill="#3F3D56"/>
<path d="M257.024 195.364L283.991 210.776L291.167 197.843L268.033 185.264L257.024 195.364Z" fill="white"/>
<path d="M280.164 190.997C280.308 190.877 280.31 190.644 280.17 190.475C280.029 190.307 279.799 190.268 279.655 190.388C279.512 190.507 279.509 190.741 279.65 190.909C279.79 191.077 280.021 191.117 280.164 190.997Z" fill="#F2F2F2"/>
<path d="M270.067 204.126C270.163 204.047 270.164 203.891 270.071 203.779C269.977 203.666 269.824 203.64 269.728 203.72C269.632 203.8 269.631 203.956 269.724 204.068C269.818 204.18 269.971 204.206 270.067 204.126Z" fill="#F2F2F2"/>
<path d="M354.191 249.716H311.162C310.035 249.715 308.954 249.266 308.156 248.469C307.359 247.672 306.91 246.591 306.909 245.464L315.917 176.389C315.925 175.267 316.376 174.193 317.172 173.403C317.969 172.612 319.046 172.168 320.168 172.169H335.439C341.538 172.176 347.385 174.602 351.698 178.914C356.011 183.227 358.437 189.074 358.444 195.173V245.464C358.443 246.591 357.994 247.672 357.197 248.469C356.4 249.266 355.319 249.715 354.191 249.716Z" fill="#2F2E41"/>
<path d="M324.801 171.919L313.163 197.434L315.164 176.001C315.159 175.471 315.258 174.944 315.457 174.451C315.655 173.959 315.948 173.51 316.32 173.131C316.692 172.752 317.134 172.45 317.623 172.242C318.112 172.034 318.636 171.924 319.167 171.919H324.801Z" fill="#CCCCCC"/>
<path d="M286.997 220.876C286.369 220.876 285.754 220.695 285.227 220.354C284.699 220.014 284.282 219.528 284.024 218.955L281.002 212.218C280.827 211.828 280.731 211.408 280.718 210.981C280.706 210.554 280.778 210.129 280.93 209.73C281.081 209.331 281.311 208.965 281.604 208.655C281.897 208.344 282.248 208.094 282.638 207.92L335.426 184.24C337.107 183.487 339.018 183.431 340.739 184.086C342.46 184.742 343.851 186.054 344.605 187.734C345.358 189.414 345.414 191.325 344.759 193.046C344.103 194.767 342.791 196.158 341.111 196.912L288.323 220.591C287.906 220.779 287.454 220.876 286.997 220.876Z" fill="#FD4552"/>
<path d="M302.393 217.397C301.765 217.398 301.151 217.217 300.624 216.876C300.096 216.535 299.679 216.049 299.421 215.477L294.258 203.969C293.906 203.182 293.881 202.287 294.188 201.481C294.494 200.676 295.108 200.024 295.895 199.671L339.241 180.227C339.631 180.052 340.051 179.956 340.478 179.943C340.905 179.931 341.33 180.003 341.729 180.154C342.129 180.306 342.494 180.535 342.804 180.829C343.115 181.122 343.365 181.473 343.54 181.863L348.703 193.37C348.877 193.76 348.974 194.18 348.986 194.607C348.998 195.034 348.927 195.459 348.775 195.858C348.623 196.257 348.394 196.623 348.101 196.933C347.807 197.244 347.456 197.494 347.066 197.668L303.72 217.113C303.303 217.3 302.851 217.397 302.393 217.397Z" fill="#2F2E41"/>
<path d="M327.222 124.21C323.067 122.68 319.652 126.712 315.887 127.635C312.285 128.518 308.405 126.44 306.481 123.412C304.237 119.88 304.793 115.294 306.835 111.806C309.071 107.987 313.053 105.643 317.274 104.619C322.111 103.446 327.151 104.023 331.925 105.215C336.504 106.287 340.944 107.885 345.156 109.978C348.963 111.948 352.572 114.644 354.797 118.378C356.82 121.771 357.82 125.994 356.82 129.882C356.269 131.889 355.21 133.72 353.745 135.198C352.238 136.794 350.511 138.176 349.106 139.869C346.981 142.427 345.552 146.621 347.648 149.647C348.102 150.31 348.712 150.85 349.424 151.221C350.28 151.667 351.04 150.372 350.182 149.925C348.675 149.141 348.128 147.548 348.169 145.924C348.25 144.081 348.954 142.32 350.167 140.93C351.639 139.161 353.459 137.729 355.013 136.038C356.517 134.462 357.617 132.547 358.221 130.454C359.326 126.406 358.462 121.998 356.507 118.351C354.391 114.405 350.845 111.425 346.986 109.26C342.786 106.903 338.118 105.324 333.483 104.069C328.51 102.723 323.288 101.966 318.171 102.897C313.735 103.704 309.4 105.846 306.61 109.469C304.006 112.851 302.762 117.46 304.021 121.622C304.619 123.506 305.708 125.197 307.177 126.521C308.645 127.844 310.439 128.753 312.375 129.153C314.344 129.515 316.376 129.25 318.186 128.395C320.136 127.521 321.907 126.163 323.981 125.582C324.911 125.298 325.909 125.324 326.823 125.658C327.73 125.992 328.122 124.542 327.222 124.21Z" fill="#2F2E41"/>
<path d="M402.405 297.963H242.149C241.991 297.962 241.84 297.899 241.729 297.787C241.617 297.676 241.555 297.525 241.555 297.367C241.555 297.209 241.617 297.058 241.729 296.946C241.84 296.835 241.991 296.772 242.149 296.771H402.405C402.563 296.771 402.714 296.834 402.826 296.946C402.938 297.057 403 297.209 403 297.367C403 297.525 402.938 297.676 402.826 297.788C402.714 297.9 402.563 297.963 402.405 297.963Z" fill="#3F3D56"/>
</g>
<defs>
<clipPath id="clip0_95_98">
<rect width="403" height="298" fill="white"/>
</clipPath>
</defs>
</svg>
