<svg width="33" height="33" viewBox="0 0 33 33" fill="none" xmlns="http://www.w3.org/2000/svg">
<g clip-path="url(#clip0_48_30)">
<path fill-rule="evenodd" clip-rule="evenodd" d="M14.1086 11.4599C13.4443 11.9578 13.1441 12.5546 13.1441 13.1116C13.1441 13.6698 13.4443 14.2666 14.1086 14.7657C14.7741 15.2648 15.7483 15.6096 16.8755 15.6096C17.1953 15.6096 17.5019 15.7366 17.728 15.9627C17.9541 16.1888 18.0811 16.4955 18.0811 16.8152C18.0811 17.135 17.9541 17.4416 17.728 17.6677C17.5019 17.8938 17.1953 18.0208 16.8755 18.0208C15.2769 18.0208 13.7831 17.5362 12.6619 16.6947C11.5407 15.8531 10.7329 14.5993 10.7329 13.1128C10.7329 11.6251 11.5407 10.3712 12.6619 9.52971C13.7831 8.6894 15.2781 8.20474 16.8755 8.20474C19.3506 8.20474 21.6907 9.38986 22.6214 11.3634C22.7578 11.6528 22.7737 11.9845 22.6655 12.2856C22.5573 12.5866 22.3339 12.8323 22.0446 12.9687C21.7552 13.1051 21.4235 13.1209 21.1225 13.0127C20.8214 12.9046 20.5757 12.6812 20.4393 12.3918C20.0173 11.4912 18.7008 10.616 16.8767 10.616C15.7495 10.616 14.7741 10.9608 14.1086 11.4599Z" fill="#FD4552"/>
<path fill-rule="evenodd" clip-rule="evenodd" d="M19.2447 22.1693C19.909 21.6714 20.208 21.0746 20.208 20.5177C20.208 19.9583 19.909 19.3615 19.2435 18.8636C18.5792 18.3644 17.6038 18.0196 16.4778 18.0196C16.158 18.0196 15.8514 17.8926 15.6253 17.6665C15.3992 17.4404 15.2722 17.1338 15.2722 16.814C15.2722 16.4943 15.3992 16.1876 15.6253 15.9615C15.8514 15.7354 16.158 15.6084 16.4778 15.6084C18.0764 15.6084 19.5702 16.0931 20.6914 16.9346C21.8126 17.7761 22.6192 19.0299 22.6192 20.5165C22.6192 22.003 21.8126 23.258 20.6902 24.0983C19.569 24.9398 18.0764 25.4245 16.4778 25.4245C14.0027 25.4245 11.6614 24.2394 10.7318 22.2646C10.5955 21.9754 10.5796 21.6438 10.6877 21.3429C10.7957 21.042 11.0189 20.7963 11.3081 20.6599C11.5973 20.5235 11.9289 20.5076 12.2298 20.6157C12.5308 20.7238 12.7764 20.947 12.9128 21.2362C13.3372 22.138 14.6537 23.0133 16.4778 23.0133C17.605 23.0133 18.5792 22.6685 19.2447 22.1693ZM16.6442 5.79352C16.9639 5.79352 17.2706 5.92054 17.4967 6.14663C17.7228 6.37273 17.8498 6.67938 17.8498 6.99913V8.20474C17.8498 8.52449 17.7228 8.83114 17.4967 9.05724C17.2706 9.28333 16.9639 9.41035 16.6442 9.41035C16.3244 9.41035 16.0178 9.28333 15.7917 9.05724C15.5656 8.83114 15.4386 8.52449 15.4386 8.20474V6.99913C15.4386 6.67938 15.5656 6.37273 15.7917 6.14663C16.0178 5.92054 16.3244 5.79352 16.6442 5.79352Z" fill="#FD4552"/>
<path fill-rule="evenodd" clip-rule="evenodd" d="M16.6441 23.8777C16.9638 23.8777 17.2705 24.0047 17.4966 24.2308C17.7227 24.4569 17.8497 24.7635 17.8497 25.0833V26.2889C17.8497 26.6087 17.7227 26.9153 17.4966 27.1414C17.2705 27.3675 16.9638 27.4945 16.6441 27.4945C16.3243 27.4945 16.0177 27.3675 15.7916 27.1414C15.5655 26.9153 15.4385 26.6087 15.4385 26.2889V25.0833C15.4385 24.7635 15.5655 24.4569 15.7916 24.2308C16.0177 24.0047 16.3243 23.8777 16.6441 23.8777Z" fill="#FD4552"/>
<path d="M6.14678 7.85148C5.92717 7.6241 5.80565 7.31956 5.8084 7.00346C5.81114 6.68735 5.93794 6.38497 6.16147 6.16144C6.385 5.9379 6.68738 5.81111 7.00349 5.80836C7.31959 5.80562 7.62413 5.92714 7.85151 6.14675L27.1413 25.4365C27.3609 25.6639 27.4824 25.9685 27.4797 26.2846C27.4769 26.6007 27.3502 26.9031 27.1266 27.1266C26.9031 27.3501 26.6007 27.4769 26.2846 27.4797C25.9685 27.4824 25.664 27.3609 25.4366 27.1413L6.14678 7.85148Z" fill="#FD4552"/>
<path fill-rule="evenodd" clip-rule="evenodd" d="M16.6441 29.9058C23.9682 29.9058 29.9059 23.9681 29.9059 16.644C29.9059 9.31993 23.9682 3.38229 16.6441 3.38229C9.32005 3.38229 3.38242 9.31993 3.38242 16.644C3.38242 23.9681 9.32005 29.9058 16.6441 29.9058ZM16.6441 32.317C25.3004 32.317 32.3171 25.3003 32.3171 16.644C32.3171 7.98773 25.3004 0.971069 16.6441 0.971069C7.98785 0.971069 0.971191 7.98773 0.971191 16.644C0.971191 25.3003 7.98785 32.317 16.6441 32.317Z" fill="#FD4552"/>
</g>
<defs>
<clipPath id="clip0_48_30">
<rect width="31.3459" height="31.3459" fill="white" transform="translate(0.971191 0.971069)"/>
</clipPath>
</defs>
</svg>
