<svg width="33" height="33" viewBox="0 0 33 33" fill="none" xmlns="http://www.w3.org/2000/svg">
<path d="M16.541 27.0927C17.6511 27.0927 18.7178 26.9242 19.7409 26.5872C20.764 26.2502 21.7217 25.7657 22.6142 25.1335C21.7217 24.5023 20.764 24.0181 19.7409 23.6812C18.7178 23.3442 17.6511 23.1753 16.541 23.1744C15.4308 23.1735 14.3642 23.3425 13.3411 23.6812C12.318 24.0199 11.3602 24.504 10.4677 25.1335C11.3602 25.7648 12.318 26.2494 13.3411 26.5872C14.3642 26.925 15.4308 27.0935 16.541 27.0927ZM19.7735 10.1463C20.4483 10.8211 20.8728 11.6265 21.0469 12.5625C21.2211 13.4985 21.1122 14.4019 20.7204 15.2726C20.5463 15.6427 20.2907 15.8987 19.9537 16.0406C19.6168 16.1825 19.2737 16.166 18.9246 15.991C18.598 15.8386 18.3695 15.5939 18.2389 15.257C18.1083 14.92 18.13 14.5878 18.3042 14.2604C18.4783 13.8904 18.5327 13.4985 18.4674 13.085C18.4021 12.6714 18.2171 12.3122 17.9123 12.0074C17.6294 11.7245 17.2972 11.5451 16.9158 11.4693C16.5344 11.3936 16.1591 11.4315 15.79 11.583C15.4852 11.6918 15.1805 11.6753 14.8757 11.5333C14.571 11.3914 14.3642 11.1467 14.2553 10.7993C14.1247 10.4293 14.1521 10.0757 14.3376 9.73877C14.5231 9.40181 14.8004 9.1567 15.1696 9.00345C15.9315 8.6987 16.7316 8.65516 17.5702 8.87284C18.4087 9.09052 19.1431 9.515 19.7735 10.1463ZM16.541 29.7048C14.7342 29.7048 13.0363 29.3617 11.4472 28.6756C9.85819 27.9895 8.47592 27.0591 7.30045 25.8845C6.12497 24.7099 5.19461 23.3277 4.50935 21.7377C3.8241 20.1478 3.48103 18.4499 3.48016 16.644C3.48016 15.3597 3.65997 14.108 4.01957 12.889C4.37918 11.67 4.90684 10.5163 5.60254 9.42793L2.66386 6.4566C2.40265 6.19538 2.27726 5.8854 2.28771 5.52667C2.29816 5.16793 2.43443 4.85752 2.69652 4.59543C2.9586 4.33335 3.26901 4.20274 3.62775 4.20361C3.98649 4.20448 4.29646 4.33509 4.55768 4.59543L28.5569 28.6273C28.8181 28.8885 28.9435 29.1989 28.933 29.5585C28.9226 29.9181 28.7863 30.2281 28.5242 30.4885C28.2622 30.7488 27.9574 30.8794 27.61 30.8803C27.2626 30.8812 26.9578 30.7505 26.6957 30.4885L7.52901 11.3544C7.05011 12.1598 6.69094 13.0088 6.45149 13.9012C6.21205 14.7937 6.09232 15.708 6.09232 16.644C6.09232 17.8848 6.29912 19.0711 6.71271 20.2031C7.1263 21.335 7.72492 22.369 8.50857 23.305C9.68404 22.4125 10.9522 21.7321 12.3132 21.2636C13.6741 20.7952 15.0834 20.5614 16.541 20.5623C17.3681 20.5623 18.1953 20.6493 19.0225 20.8235C19.8497 20.9976 20.6551 21.2371 21.4388 21.5418L25.7815 25.8845C24.5407 27.1253 23.1258 28.0722 21.5367 28.7253C19.9477 29.3783 18.2824 29.7048 16.541 29.7048ZM11.1207 4.75869C11.9697 4.36687 12.8513 4.073 13.7655 3.87709C14.6798 3.68118 15.6049 3.58322 16.541 3.58322C18.2824 3.58322 19.9477 3.90974 21.5367 4.56278C23.1258 5.21582 24.5407 6.16273 25.7815 7.4035C27.0222 8.64428 27.9692 10.0592 28.6222 11.6483C29.2752 13.2373 29.6018 14.9026 29.6018 16.644C29.6018 17.58 29.5038 18.5052 29.3079 19.4194C29.112 20.3337 28.8181 21.2153 28.4263 22.0642C28.2739 22.3908 28.0236 22.6032 27.6753 22.7016C27.327 22.8 27.0005 22.7617 26.6957 22.5867C26.391 22.4117 26.1842 22.1504 26.0753 21.803C25.9665 21.4556 25.9883 21.1073 26.1406 20.7582C26.4236 20.1051 26.6356 19.4303 26.7767 18.7337C26.9178 18.0372 26.9887 17.3406 26.9896 16.644C26.9896 13.7271 25.9774 11.2564 23.953 9.23202C21.9285 7.20759 19.4579 6.19538 16.541 6.19538C15.8444 6.19538 15.1478 6.26591 14.4512 6.40697C13.7547 6.54802 13.0798 6.76048 12.4268 7.04433C12.0785 7.19671 11.7302 7.21848 11.3819 7.10964C11.0337 7.0008 10.7724 6.794 10.5983 6.48925C10.4242 6.1845 10.3858 5.85798 10.4834 5.50969C10.5809 5.1614 10.7933 4.91107 11.1207 4.75869Z" fill="#FD4552"/>
</svg>
