<svg width="275" height="305" viewBox="0 0 275 305" fill="none" xmlns="http://www.w3.org/2000/svg">
<g clip-path="url(#clip0_281_5)">
<path d="M53.2289 281.345C32.7509 281.345 16.1502 264.749 16.1502 244.276C16.1502 223.803 32.7509 207.207 53.2289 207.207C73.7069 207.207 90.3076 223.803 90.3076 244.276C90.3076 264.749 73.7069 281.345 53.2289 281.345Z" fill="#2F2E41"/>
<path d="M79.6428 289.933L89.8887 285.253L80.6908 263.718L70.4449 268.397L79.6428 289.933Z" fill="#2F2E41"/>
<path d="M49.9535 277.757L60.1992 273.077L68.586 291.429L58.3402 296.109L49.9535 277.757Z" fill="#2F2E41"/>
<path d="M56.7622 304.31C55.1784 303.183 56.3318 298.846 59.3383 294.624C62.3448 290.402 66.066 287.892 67.6498 289.02C69.2336 290.147 68.0803 294.483 65.0738 298.706C62.0672 302.928 58.346 305.437 56.7622 304.31Z" fill="#2F2E41"/>
<path d="M77.6382 298.329C76.0544 297.201 77.2077 292.865 80.2143 288.642C83.2208 284.42 86.942 281.911 88.5258 283.038C90.1096 284.165 88.9563 288.502 85.9497 292.724C82.9432 296.947 79.222 299.456 77.6382 298.329Z" fill="#2F2E41"/>
<path d="M48.474 248.799C41.4752 248.799 35.8016 243.127 35.8016 236.13C35.8016 229.133 41.4752 223.461 48.474 223.461C55.4728 223.461 61.1465 229.133 61.1465 236.13C61.1465 243.127 55.4728 248.799 48.474 248.799Z" fill="white"/>
<path d="M53.0483 234.66C50.7154 234.66 48.8242 232.77 48.8242 230.437C48.8242 228.105 50.7154 226.214 53.0483 226.214C55.3812 226.214 57.2725 228.105 57.2725 230.437C57.2725 232.77 55.3812 234.66 53.0483 234.66Z" fill="#3F3D56"/>
<path d="M71.6148 197.977C68.7661 184.541 54.4311 176.197 39.5966 179.34C24.762 182.484 15.0456 195.925 17.8942 209.361C20.7429 222.797 31.7192 223.219 46.5537 220.076C61.3882 216.932 74.4635 211.414 71.6148 197.977Z" fill="#CFCCE0"/>
<path d="M-0.14979 246.629C-0.22738 243.417 8.00765 240.612 18.2437 240.365C28.4797 240.118 36.8405 242.522 36.9181 245.735C36.9957 248.947 28.7607 251.752 18.5246 251.999C8.28863 252.246 -0.0721994 249.842 -0.14979 246.629Z" fill="#2F2E41"/>
<path d="M73.3697 240.391C73.2922 237.178 81.5272 234.374 91.7632 234.127C101.999 233.88 110.36 236.284 110.438 239.496C110.515 242.709 102.28 245.513 92.0442 245.76C81.8082 246.007 73.4473 243.603 73.3697 240.391Z" fill="#2F2E41"/>
<path d="M66.7057 255.919C67.6368 257.956 67.7202 260.28 66.9375 262.379C66.1548 264.478 64.5701 266.18 62.5321 267.111C60.4941 268.042 58.1697 268.125 56.0703 267.343C53.9708 266.56 52.2682 264.976 51.3371 262.938C49.3982 258.695 52.437 256.245 56.6809 254.307C60.9248 252.368 64.7668 251.676 66.7057 255.919Z" fill="white"/>
<path d="M61.9295 210.699C61.8958 280.146 103.18 304.411 154.117 304.436C155.3 304.436 156.478 304.423 157.649 304.398C160.01 304.348 162.346 304.241 164.658 304.078C210.632 300.847 246.364 275.374 246.395 210.788C246.428 143.95 161.023 59.5603 154.618 53.3205C154.613 53.3205 154.613 53.3205 154.607 53.3148C154.364 53.077 154.239 52.9581 154.239 52.9581C154.239 52.9581 61.9633 141.257 61.9295 210.699Z" fill="#FD4552"/>
<path d="M157.479 293.814L123.769 246.677L157.562 298.987L157.65 304.398C160.01 304.348 162.347 304.242 164.658 304.078L161.058 234.601L161.086 234.064L161.024 233.962L160.682 227.397L194.61 174.99L160.582 222.479L160.497 223.871L157.777 171.378L186.826 117.22L157.425 162.153L154.619 53.3205L154.608 52.9583L154.607 53.3148L155.041 139.141L126.17 105.102L155.162 146.532L155.903 193.534L128.94 148.415L156.008 200.444L156.419 226.58L117.288 163.775L156.568 235.697L157.479 293.814Z" fill="#3F3D56"/>
<path d="M272.994 75.1761C271.808 75.1761 270.846 74.2144 270.846 73.0282C270.846 71.8419 271.808 70.8803 272.994 70.8803C274.181 70.8803 275.143 71.8419 275.143 73.0282C275.143 74.2144 274.181 75.1761 272.994 75.1761Z" fill="#CFCCE0"/>
<path d="M140.65 89.7817C139.464 89.7817 138.502 88.82 138.502 87.6338C138.502 86.4476 139.464 85.4859 140.65 85.4859C141.837 85.4859 142.799 86.4476 142.799 87.6338C142.799 88.82 141.837 89.7817 140.65 89.7817Z" fill="#CFCCE0"/>
<path d="M49.9863 158.514C48.7998 158.514 47.8379 157.552 47.8379 156.366C47.8379 155.18 48.7998 154.218 49.9863 154.218C51.1729 154.218 52.1348 155.18 52.1348 156.366C52.1348 157.552 51.1729 158.514 49.9863 158.514Z" fill="#CFCCE0"/>
<path d="M106.275 207.486C105.089 207.486 104.127 206.524 104.127 205.338C104.127 204.152 105.089 203.19 106.275 203.19C107.462 203.19 108.424 204.152 108.424 205.338C108.424 206.524 107.462 207.486 106.275 207.486Z" fill="#CFCCE0"/>
<path d="M228.307 223.38C227.12 223.38 226.158 222.419 226.158 221.232C226.158 220.046 227.12 219.085 228.307 219.085C229.493 219.085 230.455 220.046 230.455 221.232C230.455 222.419 229.493 223.38 228.307 223.38Z" fill="#CFCCE0"/>
<path d="M167.291 9.4507C164.681 9.4507 162.564 7.33509 162.564 4.72535C162.564 2.11561 164.681 0 167.291 0C169.901 0 172.018 2.11561 172.018 4.72535C172.018 7.33509 169.901 9.4507 167.291 9.4507Z" fill="#CFCCE0"/>
<path d="M184.908 254.739C182.298 254.739 180.182 252.624 180.182 250.014C180.182 247.404 182.298 245.289 184.908 245.289C187.519 245.289 189.635 247.404 189.635 250.014C189.635 252.624 187.519 254.739 184.908 254.739Z" fill="#CFCCE0"/>
<path d="M76.627 87.2042C74.0165 87.2042 71.9004 85.0886 71.9004 82.4789C71.9004 79.8692 74.0165 77.7535 76.627 77.7535C79.2374 77.7535 81.3535 79.8692 81.3535 82.4789C81.3535 85.0886 79.2374 87.2042 76.627 87.2042Z" fill="#CFCCE0"/>
<path d="M209.83 156.366C207.22 156.366 205.104 154.251 205.104 151.641C205.104 149.031 207.22 146.916 209.83 146.916C212.44 146.916 214.557 149.031 214.557 151.641C214.557 154.251 212.44 156.366 209.83 156.366Z" fill="#CFCCE0"/>
<path d="M33.6533 304.141H401.896V305H33.6533V304.141Z" fill="#3F3D56"/>
</g>
<defs>
<clipPath id="clip0_281_5">
<rect width="275" height="305" fill="white" transform="matrix(-1 0 0 1 275 0)"/>
</clipPath>
</defs>
</svg>
