<svg width="23" height="24" viewBox="0 0 23 24" fill="none" xmlns="http://www.w3.org/2000/svg">
<path opacity="0.2" d="M20.5126 7.99992H13.675V1L20.5126 7.99992Z" fill="#FD4552"/>
<path d="M22.4661 15.9998C22.4661 16.265 22.3632 16.5194 22.18 16.7069C21.9969 16.8944 21.7484 16.9998 21.4894 16.9998H18.559V18.9998H20.5126C20.7716 18.9998 21.0201 19.1051 21.2033 19.2927C21.3864 19.4802 21.4894 19.7346 21.4894 19.9998C21.4894 20.265 21.3864 20.5193 21.2033 20.7069C21.0201 20.8944 20.7716 20.9998 20.5126 20.9998H18.559V22.9997C18.559 23.2649 18.4561 23.5193 18.2729 23.7068C18.0897 23.8944 17.8413 23.9997 17.5822 23.9997C17.3231 23.9997 17.0747 23.8944 16.8915 23.7068C16.7083 23.5193 16.6054 23.2649 16.6054 22.9997V15.9998C16.6054 15.7346 16.7083 15.4802 16.8915 15.2927C17.0747 15.1052 17.3231 14.9998 17.5822 14.9998H21.4894C21.7484 14.9998 21.9969 15.1052 22.18 15.2927C22.3632 15.4802 22.4661 15.7346 22.4661 15.9998ZM6.34913 18.4998C6.34913 19.428 5.98894 20.3183 5.3478 20.9746C4.70665 21.631 3.83708 21.9997 2.93037 21.9997H1.95358V22.9997C1.95358 23.2649 1.85067 23.5193 1.66748 23.7068C1.4843 23.8944 1.23585 23.9997 0.976789 23.9997C0.717728 23.9997 0.469278 23.8944 0.286095 23.7068C0.102912 23.5193 0 23.2649 0 22.9997V15.9998C0 15.7346 0.102912 15.4802 0.286095 15.2927C0.469278 15.1052 0.717728 14.9998 0.976789 14.9998H2.93037C3.83708 14.9998 4.70665 15.3686 5.3478 16.0249C5.98894 16.6813 6.34913 17.5715 6.34913 18.4998ZM4.39555 18.4998C4.39555 18.102 4.24118 17.7204 3.96641 17.4391C3.69163 17.1578 3.31896 16.9998 2.93037 16.9998H1.95358V19.9998H2.93037C3.31896 19.9998 3.69163 19.8417 3.96641 19.5604C4.24118 19.2791 4.39555 18.8976 4.39555 18.4998ZM15.1402 19.4998C15.1402 20.6932 14.6771 21.8378 13.8528 22.6817C13.0285 23.5256 11.9104 23.9997 10.7447 23.9997H8.7911C8.53204 23.9997 8.28359 23.8944 8.10041 23.7068C7.91722 23.5193 7.81431 23.2649 7.81431 22.9997V15.9998C7.81431 15.7346 7.91722 15.4802 8.10041 15.2927C8.28359 15.1052 8.53204 14.9998 8.7911 14.9998H10.7447C11.9104 14.9998 13.0285 15.4739 13.8528 16.3178C14.6771 17.1617 15.1402 18.3063 15.1402 19.4998ZM13.1866 19.4998C13.1866 18.8367 12.9294 18.2009 12.4714 17.732C12.0135 17.2632 11.3923 16.9998 10.7447 16.9998H9.76789V21.9997H10.7447C11.3923 21.9997 12.0135 21.7364 12.4714 21.2675C12.9294 20.7987 13.1866 20.1628 13.1866 19.4998ZM0 10.9999V1.99998C0 1.46955 0.205823 0.960848 0.57219 0.58578C0.938556 0.210711 1.43546 3.09195e-07 1.95358 3.09195e-07H13.675C13.8034 -0.000102985 13.9304 0.0256755 14.049 0.075863C14.1676 0.126051 14.2753 0.199664 14.3661 0.292497L21.2036 7.29242C21.2943 7.38535 21.3662 7.49567 21.4153 7.61706C21.4643 7.73846 21.4895 7.86855 21.4894 7.99991V10.9999C21.4894 11.2651 21.3864 11.5194 21.2033 11.707C21.0201 11.8945 20.7716 11.9999 20.5126 11.9999C20.2535 11.9999 20.0051 11.8945 19.8219 11.707C19.6387 11.5194 19.5358 11.2651 19.5358 10.9999V8.9999H13.675C13.416 8.9999 13.1675 8.89454 12.9843 8.70701C12.8012 8.51947 12.6983 8.26512 12.6983 7.99991V1.99998H1.95358V10.9999C1.95358 11.2651 1.85067 11.5194 1.66748 11.707C1.4843 11.8945 1.23585 11.9999 0.976789 11.9999C0.717728 11.9999 0.469278 11.8945 0.286095 11.707C0.102912 11.5194 0 11.2651 0 10.9999ZM14.6518 6.99992H18.1548L14.6518 3.41371V6.99992Z" fill="#FD4552"/>
</svg>
