<svg width="10" height="10" viewBox="0 0 10 10" fill="" xmlns="http://www.w3.org/2000/svg">
<path d="M4.16667 9.10816C4.16667 9.31521 4.24898 9.51379 4.39549 9.6602C4.542 9.80661 4.74072 9.88886 4.94792 9.88886C5.15512 9.88886 5.35383 9.80661 5.50034 9.6602C5.64686 9.51379 5.72917 9.31521 5.72917 9.10816V5.72513H9.11458C9.32178 5.72513 9.5205 5.64288 9.66701 5.49647C9.81352 5.35006 9.89583 5.15148 9.89583 4.94443C9.89583 4.73738 9.81352 4.5388 9.66701 4.39239C9.5205 4.24598 9.32178 4.16373 9.11458 4.16373H5.72917V0.780699C5.72917 0.573645 5.64686 0.375071 5.50034 0.228662C5.35383 0.082252 5.15512 0 4.94792 0C4.74072 0 4.542 0.082252 4.39549 0.228662C4.24898 0.375071 4.16667 0.573645 4.16667 0.780699V4.16373H0.78125C0.57405 4.16373 0.375336 4.24598 0.228823 4.39239C0.0823101 4.5388 0 4.73738 0 4.94443C0 5.15148 0.0823101 5.35006 0.228823 5.49647C0.375336 5.64288 0.57405 5.72513 0.78125 5.72513H4.16667V9.10816Z" fill=""/>
</svg>
