<svg width="60" height="60" viewBox="0 0 60 60" fill="none" xmlns="http://www.w3.org/2000/svg">
<g opacity="0.7">
<path fill-rule="evenodd" clip-rule="evenodd" d="M11.25 3.75C10.2554 3.75 9.30161 4.14509 8.59835 4.84835C7.89509 5.55161 7.5 6.50544 7.5 7.5V52.5C7.5 53.4946 7.89509 54.4484 8.59835 55.1516C9.30161 55.8549 10.2554 56.25 11.25 56.25H30C29.1271 55.0891 28.3921 53.8307 27.81 52.5H11.25V7.5H37.5V15C37.5 15.9946 37.8951 16.9484 38.5984 17.6516C39.3016 18.3549 40.2554 18.75 41.25 18.75H48.75V26.625C50.055 26.8875 51.3075 27.2887 52.5 27.81V15C52.4998 14.0055 52.1046 13.0518 51.4012 12.3488L43.9012 4.84875C43.1982 4.14544 42.2445 3.75021 41.25 3.75H11.25ZM60 45C60 48.9782 58.4196 52.7936 55.6066 55.6066C52.7936 58.4196 48.9782 60 45 60C41.0218 60 37.2064 58.4196 34.3934 55.6066C31.5804 52.7936 30 48.9782 30 45C30 41.0218 31.5804 37.2064 34.3934 34.3934C37.2064 31.5804 41.0218 30 45 30C48.9782 30 52.7936 31.5804 55.6066 34.3934C58.4196 37.2064 60 41.0218 60 45ZM53.8275 39.9225C54.0021 40.0967 54.1406 40.3036 54.2352 40.5314C54.3297 40.7592 54.3783 41.0034 54.3783 41.25C54.3783 41.4966 54.3297 41.7408 54.2352 41.9686C54.1406 42.1964 54.0021 42.4033 53.8275 42.5775L44.4525 51.9525C44.2783 52.1271 44.0714 52.2656 43.8436 52.3602C43.6158 52.4547 43.3716 52.5033 43.125 52.5033C42.8784 52.5033 42.6342 52.4547 42.4064 52.3602C42.1786 52.2656 41.9717 52.1271 41.7975 51.9525L38.0475 48.2025C37.6954 47.8504 37.4976 47.3729 37.4976 46.875C37.4976 46.3771 37.6954 45.8996 38.0475 45.5475C38.3996 45.1954 38.8771 44.9976 39.375 44.9976C39.8729 44.9976 40.3504 45.1954 40.7025 45.5475L43.125 47.9738L51.1725 39.9225C51.3467 39.7479 51.5536 39.6094 51.7814 39.5148C52.0092 39.4203 52.2534 39.3717 52.5 39.3717C52.7466 39.3717 52.9908 39.4203 53.2186 39.5148C53.4464 39.6094 53.6533 39.7479 53.8275 39.9225Z" fill="#F24E1E"/>
</g>
</svg>
