<svg width="14" height="14" viewBox="0 0 14 14" fill="" xmlns="http://www.w3.org/2000/svg">
<path fill-rule="evenodd" clip-rule="evenodd" d="M6.01449 1.3125H7.98616C8.11274 1.3125 8.22299 1.3125 8.32683 1.32883C8.52907 1.36123 8.72093 1.44052 8.88705 1.56035C9.05317 1.68018 9.18894 1.83722 9.28349 2.01892C9.33249 2.11225 9.36691 2.21667 9.40716 2.33625L9.47191 2.53167C9.51658 2.69043 9.61376 2.82936 9.74757 2.92577C9.88138 3.02218 10.0439 3.07038 10.2087 3.0625H11.9587C12.0747 3.0625 12.186 3.10859 12.268 3.19064C12.3501 3.27269 12.3962 3.38397 12.3962 3.5C12.3962 3.61603 12.3501 3.72731 12.268 3.80936C12.186 3.89141 12.0747 3.9375 11.9587 3.9375H2.04199C1.92596 3.9375 1.81468 3.89141 1.73263 3.80936C1.65059 3.72731 1.60449 3.61603 1.60449 3.5C1.60449 3.38397 1.65059 3.27269 1.73263 3.19064C1.81468 3.10859 1.92596 3.0625 2.04199 3.0625H3.84449C4.0003 3.05876 4.15082 3.0052 4.27396 2.90967C4.3971 2.81413 4.48639 2.68166 4.52874 2.53167L4.59408 2.33625C4.63374 2.21667 4.66816 2.11225 4.71658 2.01892C4.81119 1.83715 4.94705 1.68006 5.11327 1.56023C5.2795 1.44039 5.47147 1.36115 5.67383 1.32883C5.77766 1.3125 5.88791 1.3125 6.01391 1.3125M5.25441 3.0625C5.29537 2.98228 5.32952 2.89877 5.35649 2.81283L5.41483 2.63783C5.46791 2.47858 5.48016 2.4465 5.49241 2.42317C5.5239 2.3625 5.56917 2.31007 5.62458 2.27005C5.67999 2.23004 5.744 2.20356 5.81149 2.19275C5.88754 2.18633 5.9639 2.18457 6.04016 2.1875H7.95933C8.12733 2.1875 8.16233 2.18867 8.18799 2.19333C8.25543 2.20408 8.31941 2.23047 8.37481 2.27038C8.43022 2.31029 8.47552 2.36261 8.50708 2.42317C8.51933 2.4465 8.53158 2.47858 8.58466 2.63842L8.64299 2.81342L8.66574 2.87875C8.68849 2.94292 8.71533 3.00358 8.74508 3.0625H5.25441Z" fill=""/>
<path d="M3.4504 4.92915C3.44266 4.81335 3.38924 4.70537 3.30189 4.62896C3.21453 4.55254 3.1004 4.51396 2.9846 4.5217C2.8688 4.52943 2.76082 4.58285 2.68441 4.6702C2.60799 4.75756 2.56941 4.87169 2.57715 4.98749L2.84781 9.04282C2.8974 9.79065 2.93765 10.395 3.03215 10.8698C3.13073 11.3627 3.29756 11.7746 3.6429 12.0972C3.98765 12.4203 4.40998 12.5597 4.90873 12.6245C5.38823 12.6875 5.99373 12.6875 6.7439 12.6875H7.25665C8.00623 12.6875 8.61231 12.6875 9.09181 12.6245C9.58998 12.5597 10.0123 12.4203 10.3576 12.0972C10.7024 11.7746 10.8692 11.3622 10.9678 10.8698C11.0623 10.3956 11.102 9.79065 11.1521 9.04282L11.4228 4.98749C11.4305 4.87169 11.392 4.75756 11.3156 4.6702C11.2391 4.58285 11.1312 4.52943 11.0154 4.5217C10.8996 4.51396 10.7854 4.55254 10.6981 4.62896C10.6107 4.70537 10.5573 4.81335 10.5496 4.92915L10.2812 8.95415C10.2287 9.7399 10.1914 10.2871 10.1097 10.6983C10.0298 11.0979 9.91898 11.3091 9.75973 11.4584C9.5999 11.6077 9.38173 11.7046 8.97806 11.7571C8.56215 11.8113 8.01381 11.8125 7.22573 11.8125H6.77423C5.98673 11.8125 5.4384 11.8113 5.0219 11.7571C4.61823 11.7046 4.40006 11.6077 4.24023 11.4584C4.08098 11.3091 3.97015 11.0979 3.89023 10.6989C3.80856 10.2871 3.77123 9.7399 3.71873 8.95357L3.4504 4.92915Z" fill=""/>
<path d="M5.49809 5.98149C5.6135 5.96993 5.72877 6.00466 5.81858 6.07806C5.90838 6.15146 5.96537 6.25751 5.97701 6.37291L6.26867 9.28957C6.27722 9.40337 6.24096 9.516 6.16763 9.60345C6.0943 9.69089 5.98971 9.74622 5.87617 9.75763C5.76262 9.76905 5.64911 9.73565 5.55984 9.66455C5.47058 9.59346 5.41262 9.4903 5.39834 9.37707L5.10667 6.46041C5.09511 6.345 5.12984 6.22973 5.20324 6.13992C5.27664 6.05012 5.38269 5.99313 5.49809 5.98149ZM8.50226 5.98149C8.61754 5.99313 8.7235 6.05004 8.79689 6.13971C8.87027 6.22939 8.90508 6.34451 8.89367 6.45982L8.60201 9.37649C8.58754 9.4895 8.52957 9.5924 8.44041 9.66333C8.35125 9.73425 8.23794 9.7676 8.12457 9.75628C8.01121 9.74496 7.90673 9.68986 7.83336 9.60271C7.75999 9.51555 7.72351 9.40321 7.73167 9.28957L8.02334 6.37291C8.03498 6.25762 8.09189 6.15166 8.18156 6.07828C8.27124 6.0049 8.38695 5.97009 8.50226 5.98149Z" fill=""/>
</svg>
